<?xml version="1.0" encoding="iso-8859-1"?>
<!-- Generator: Adobe Illustrator 19.0.0, SVG Export Plug-In . SVG Version: 6.00 Build 0)  -->
<svg version="1.1" id="Capa_1" xmlns="http://www.w3.org/2000/svg" xmlns:xlink="http://www.w3.org/1999/xlink" x="0px" y="0px"
	 viewBox="0 0 225.534 225.534" style="enable-background:new 0 0 225.534 225.534;" xml:space="preserve">
<path d="M198.267,193.534v-74h-13v-67h-56.573c7.31-5.454,15.054-11.853,17.59-16.161c2.609-4.432,4.45-9.283,4.144-15.684
	C149.885,9.357,141.592,0,131.435,0c-9.994,0-17.834,8.316-17.834,8.316S106.208,0,95.766,0c-10.157,0-18.45,9.357-18.993,20.688
	c-0.306,6.401,1.541,11.271,4.144,15.684c2.524,4.279,10.307,10.692,17.649,16.161H41.267v67h-13v74h-20v32h209v-32H198.267z
	 M66.267,101.334c3,1.247,6.249,1.942,9.597,1.942c7.614,0,14.486-3.581,18.868-9.142c4.382,5.561,11.212,9.142,18.826,9.142
	s14.423-3.581,18.806-9.142c4.382,5.561,11.014,9.142,18.628,9.142c3.348,0,6.275-0.694,9.275-1.942v17.2h-94V101.334z
	 M53.267,172.808c5,2.646,9.442,4.18,14.813,4.18c9.347,0,17.711-4.637,22.76-11.727c5.05,7.09,13.371,11.727,22.718,11.727
	s17.648-4.637,22.698-11.727c5.05,7.09,13.173,11.727,22.521,11.727c5.371,0,10.491-1.534,14.491-4.18v20.726h-120V172.808z"/>
<g>
</g>
<g>
</g>
<g>
</g>
<g>
</g>
<g>
</g>
<g>
</g>
<g>
</g>
<g>
</g>
<g>
</g>
<g>
</g>
<g>
</g>
<g>
</g>
<g>
</g>
<g>
</g>
<g>
</g>
</svg>
