<?xml version="1.0" encoding="iso-8859-1"?>
<!-- Generator: Adobe Illustrator 19.0.0, SVG Export Plug-In . SVG Version: 6.00 Build 0)  -->
<svg version="1.1" id="Layer_1" xmlns="http://www.w3.org/2000/svg" xmlns:xlink="http://www.w3.org/1999/xlink" x="0px" y="0px"
	 viewBox="0 0 505.292 505.292" style="enable-background:new 0 0 505.292 505.292;" xml:space="preserve">
<g>
	<g>
		<g>
			<path d="M67.922,390.469v19.012c0,4.71,3.814,8.533,8.533,8.533h34.133c4.71,0,8.533-3.823,8.533-8.533v-42.667H66.941
				C67.555,373.863,67.922,381.628,67.922,390.469z"/>
			<path d="M504.884,358.398c-1.254-6.298-6.434-16.87-27.042-16.87c-34.611,0-143.044-36.284-188.8-71.979
				C195.901,196.887,62.329,90.212,60.989,89.145c-3.217-2.577-7.842-2.483-10.948,0.256C24.918,111.46-18.772,202.46,8.825,257.653
				c8.653,17.297,18.577,28.621,27.341,38.622c12.621,14.396,23.322,26.726,28.467,53.47h54.485v-34.133
				c0-3.089,1.323-11.844,7.356-15.138c4.454-2.423,15.718-4.079,41.011,12.22c24.397,15.718,44.774,33.237,62.754,48.683
				c35.371,30.396,65.911,56.636,110.626,56.636c0,0,47.497-0.239,75.998-0.239c13.636,0,43.145-3.857,55.97-9.19
				C485.957,403.129,508.605,377.035,504.884,358.398z"/>
		</g>
	</g>
</g>
<g>
</g>
<g>
</g>
<g>
</g>
<g>
</g>
<g>
</g>
<g>
</g>
<g>
</g>
<g>
</g>
<g>
</g>
<g>
</g>
<g>
</g>
<g>
</g>
<g>
</g>
<g>
</g>
<g>
</g>
</svg>
