<?xml version="1.0" encoding="utf-8"?>
<!DOCTYPE svg PUBLIC "-//W3C//DTD SVG 1.1//EN" "http://www.w3.org/Graphics/SVG/1.1/DTD/svg11.dtd">
<svg version="1.1" id="Layer_1" xmlns="http://www.w3.org/2000/svg" xmlns:xlink="http://www.w3.org/1999/xlink" x="0px" y="0px"
width="1155px" height="1155px" viewBox="0 0 1155 1155" enable-background="new 0 0 1155 1155" xml:space="preserve">
<rect x="0" y="0" width="1155" height="1155" fill="rgb(255,255,255)" /><g transform="translate(70,70)"><g transform="translate(315,0) scale(0.07,0.07)"><g transform="" style="fill: rgb(0, 0, 128);">
<path d="M250,0c138.077,0,250,111.93,250,250c0,138.077-111.923,250-250,250C111.93,500,0,388.077,0,250C0,111.93,111.93,0,250,0z"
	/>
</g></g><g transform="translate(350,0) scale(0.07,0.07)"><g transform="" style="fill: rgb(0, 0, 128);">
<path d="M250,0c138.077,0,250,111.93,250,250c0,138.077-111.923,250-250,250C111.93,500,0,388.077,0,250C0,111.93,111.93,0,250,0z"
	/>
</g></g><g transform="translate(385,0) scale(0.07,0.07)"><g transform="" style="fill: rgb(0, 0, 128);">
<path d="M250,0c138.077,0,250,111.93,250,250c0,138.077-111.923,250-250,250C111.93,500,0,388.077,0,250C0,111.93,111.93,0,250,0z"
	/>
</g></g><g transform="translate(455,0) scale(0.07,0.07)"><g transform="" style="fill: rgb(0, 0, 128);">
<path d="M250,0c138.077,0,250,111.93,250,250c0,138.077-111.923,250-250,250C111.93,500,0,388.077,0,250C0,111.93,111.93,0,250,0z"
	/>
</g></g><g transform="translate(490,0) scale(0.07,0.07)"><g transform="" style="fill: rgb(0, 0, 128);">
<path d="M250,0c138.077,0,250,111.93,250,250c0,138.077-111.923,250-250,250C111.93,500,0,388.077,0,250C0,111.93,111.93,0,250,0z"
	/>
</g></g><g transform="translate(525,0) scale(0.07,0.07)"><g transform="" style="fill: rgb(0, 0, 128);">
<path d="M250,0c138.077,0,250,111.93,250,250c0,138.077-111.923,250-250,250C111.93,500,0,388.077,0,250C0,111.93,111.93,0,250,0z"
	/>
</g></g><g transform="translate(630,0) scale(0.07,0.07)"><g transform="" style="fill: rgb(0, 0, 128);">
<path d="M250,0c138.077,0,250,111.93,250,250c0,138.077-111.923,250-250,250C111.93,500,0,388.077,0,250C0,111.93,111.93,0,250,0z"
	/>
</g></g><g transform="translate(665,0) scale(0.07,0.07)"><g transform="" style="fill: rgb(0, 0, 128);">
<path d="M250,0c138.077,0,250,111.93,250,250c0,138.077-111.923,250-250,250C111.93,500,0,388.077,0,250C0,111.93,111.93,0,250,0z"
	/>
</g></g><g transform="translate(315,35) scale(0.07,0.07)"><g transform="" style="fill: rgb(0, 0, 128);">
<path d="M250,0c138.077,0,250,111.93,250,250c0,138.077-111.923,250-250,250C111.93,500,0,388.077,0,250C0,111.93,111.93,0,250,0z"
	/>
</g></g><g transform="translate(350,35) scale(0.07,0.07)"><g transform="" style="fill: rgb(0, 0, 128);">
<path d="M250,0c138.077,0,250,111.93,250,250c0,138.077-111.923,250-250,250C111.93,500,0,388.077,0,250C0,111.93,111.93,0,250,0z"
	/>
</g></g><g transform="translate(385,35) scale(0.07,0.07)"><g transform="" style="fill: rgb(0, 0, 128);">
<path d="M250,0c138.077,0,250,111.93,250,250c0,138.077-111.923,250-250,250C111.93,500,0,388.077,0,250C0,111.93,111.93,0,250,0z"
	/>
</g></g><g transform="translate(455,35) scale(0.07,0.07)"><g transform="" style="fill: rgb(0, 0, 128);">
<path d="M250,0c138.077,0,250,111.93,250,250c0,138.077-111.923,250-250,250C111.93,500,0,388.077,0,250C0,111.93,111.93,0,250,0z"
	/>
</g></g><g transform="translate(490,35) scale(0.07,0.07)"><g transform="" style="fill: rgb(0, 0, 128);">
<path d="M250,0c138.077,0,250,111.93,250,250c0,138.077-111.923,250-250,250C111.93,500,0,388.077,0,250C0,111.93,111.93,0,250,0z"
	/>
</g></g><g transform="translate(525,35) scale(0.07,0.07)"><g transform="" style="fill: rgb(0, 0, 128);">
<path d="M250,0c138.077,0,250,111.93,250,250c0,138.077-111.923,250-250,250C111.93,500,0,388.077,0,250C0,111.93,111.93,0,250,0z"
	/>
</g></g><g transform="translate(560,35) scale(0.07,0.07)"><g transform="" style="fill: rgb(0, 0, 128);">
<path d="M250,0c138.077,0,250,111.93,250,250c0,138.077-111.923,250-250,250C111.93,500,0,388.077,0,250C0,111.93,111.93,0,250,0z"
	/>
</g></g><g transform="translate(595,35) scale(0.07,0.07)"><g transform="" style="fill: rgb(0, 0, 128);">
<path d="M250,0c138.077,0,250,111.93,250,250c0,138.077-111.923,250-250,250C111.93,500,0,388.077,0,250C0,111.93,111.93,0,250,0z"
	/>
</g></g><g transform="translate(315,70) scale(0.07,0.07)"><g transform="" style="fill: rgb(0, 0, 128);">
<path d="M250,0c138.077,0,250,111.93,250,250c0,138.077-111.923,250-250,250C111.93,500,0,388.077,0,250C0,111.93,111.93,0,250,0z"
	/>
</g></g><g transform="translate(350,70) scale(0.07,0.07)"><g transform="" style="fill: rgb(0, 0, 128);">
<path d="M250,0c138.077,0,250,111.93,250,250c0,138.077-111.923,250-250,250C111.93,500,0,388.077,0,250C0,111.93,111.93,0,250,0z"
	/>
</g></g><g transform="translate(420,70) scale(0.07,0.07)"><g transform="" style="fill: rgb(0, 0, 128);">
<path d="M250,0c138.077,0,250,111.93,250,250c0,138.077-111.923,250-250,250C111.93,500,0,388.077,0,250C0,111.93,111.93,0,250,0z"
	/>
</g></g><g transform="translate(490,70) scale(0.07,0.07)"><g transform="" style="fill: rgb(0, 0, 128);">
<path d="M250,0c138.077,0,250,111.93,250,250c0,138.077-111.923,250-250,250C111.93,500,0,388.077,0,250C0,111.93,111.93,0,250,0z"
	/>
</g></g><g transform="translate(525,70) scale(0.07,0.07)"><g transform="" style="fill: rgb(0, 0, 128);">
<path d="M250,0c138.077,0,250,111.93,250,250c0,138.077-111.923,250-250,250C111.93,500,0,388.077,0,250C0,111.93,111.93,0,250,0z"
	/>
</g></g><g transform="translate(595,70) scale(0.07,0.07)"><g transform="" style="fill: rgb(0, 0, 128);">
<path d="M250,0c138.077,0,250,111.93,250,250c0,138.077-111.923,250-250,250C111.93,500,0,388.077,0,250C0,111.93,111.93,0,250,0z"
	/>
</g></g><g transform="translate(350,105) scale(0.07,0.07)"><g transform="" style="fill: rgb(0, 0, 128);">
<path d="M250,0c138.077,0,250,111.93,250,250c0,138.077-111.923,250-250,250C111.93,500,0,388.077,0,250C0,111.93,111.93,0,250,0z"
	/>
</g></g><g transform="translate(385,105) scale(0.07,0.07)"><g transform="" style="fill: rgb(0, 0, 128);">
<path d="M250,0c138.077,0,250,111.93,250,250c0,138.077-111.923,250-250,250C111.93,500,0,388.077,0,250C0,111.93,111.93,0,250,0z"
	/>
</g></g><g transform="translate(420,105) scale(0.07,0.07)"><g transform="" style="fill: rgb(0, 0, 128);">
<path d="M250,0c138.077,0,250,111.93,250,250c0,138.077-111.923,250-250,250C111.93,500,0,388.077,0,250C0,111.93,111.93,0,250,0z"
	/>
</g></g><g transform="translate(455,105) scale(0.07,0.07)"><g transform="" style="fill: rgb(0, 0, 128);">
<path d="M250,0c138.077,0,250,111.93,250,250c0,138.077-111.923,250-250,250C111.93,500,0,388.077,0,250C0,111.93,111.93,0,250,0z"
	/>
</g></g><g transform="translate(525,105) scale(0.07,0.07)"><g transform="" style="fill: rgb(0, 0, 128);">
<path d="M250,0c138.077,0,250,111.93,250,250c0,138.077-111.923,250-250,250C111.93,500,0,388.077,0,250C0,111.93,111.93,0,250,0z"
	/>
</g></g><g transform="translate(560,105) scale(0.07,0.07)"><g transform="" style="fill: rgb(0, 0, 128);">
<path d="M250,0c138.077,0,250,111.93,250,250c0,138.077-111.923,250-250,250C111.93,500,0,388.077,0,250C0,111.93,111.93,0,250,0z"
	/>
</g></g><g transform="translate(630,105) scale(0.07,0.07)"><g transform="" style="fill: rgb(0, 0, 128);">
<path d="M250,0c138.077,0,250,111.93,250,250c0,138.077-111.923,250-250,250C111.93,500,0,388.077,0,250C0,111.93,111.93,0,250,0z"
	/>
</g></g><g transform="translate(665,105) scale(0.07,0.07)"><g transform="" style="fill: rgb(0, 0, 128);">
<path d="M250,0c138.077,0,250,111.93,250,250c0,138.077-111.923,250-250,250C111.93,500,0,388.077,0,250C0,111.93,111.93,0,250,0z"
	/>
</g></g><g transform="translate(700,105) scale(0.07,0.07)"><g transform="" style="fill: rgb(0, 0, 128);">
<path d="M250,0c138.077,0,250,111.93,250,250c0,138.077-111.923,250-250,250C111.93,500,0,388.077,0,250C0,111.93,111.93,0,250,0z"
	/>
</g></g><g transform="translate(385,140) scale(0.07,0.07)"><g transform="" style="fill: rgb(0, 0, 128);">
<path d="M250,0c138.077,0,250,111.93,250,250c0,138.077-111.923,250-250,250C111.93,500,0,388.077,0,250C0,111.93,111.93,0,250,0z"
	/>
</g></g><g transform="translate(490,140) scale(0.07,0.07)"><g transform="" style="fill: rgb(0, 0, 128);">
<path d="M250,0c138.077,0,250,111.93,250,250c0,138.077-111.923,250-250,250C111.93,500,0,388.077,0,250C0,111.93,111.93,0,250,0z"
	/>
</g></g><g transform="translate(525,140) scale(0.07,0.07)"><g transform="" style="fill: rgb(0, 0, 128);">
<path d="M250,0c138.077,0,250,111.93,250,250c0,138.077-111.923,250-250,250C111.93,500,0,388.077,0,250C0,111.93,111.93,0,250,0z"
	/>
</g></g><g transform="translate(560,140) scale(0.07,0.07)"><g transform="" style="fill: rgb(0, 0, 128);">
<path d="M250,0c138.077,0,250,111.93,250,250c0,138.077-111.923,250-250,250C111.93,500,0,388.077,0,250C0,111.93,111.93,0,250,0z"
	/>
</g></g><g transform="translate(630,140) scale(0.07,0.07)"><g transform="" style="fill: rgb(0, 0, 128);">
<path d="M250,0c138.077,0,250,111.93,250,250c0,138.077-111.923,250-250,250C111.93,500,0,388.077,0,250C0,111.93,111.93,0,250,0z"
	/>
</g></g><g transform="translate(280,175) scale(0.07,0.07)"><g transform="" style="fill: rgb(0, 0, 128);">
<path d="M250,0c138.077,0,250,111.93,250,250c0,138.077-111.923,250-250,250C111.93,500,0,388.077,0,250C0,111.93,111.93,0,250,0z"
	/>
</g></g><g transform="translate(350,175) scale(0.07,0.07)"><g transform="" style="fill: rgb(0, 0, 128);">
<path d="M250,0c138.077,0,250,111.93,250,250c0,138.077-111.923,250-250,250C111.93,500,0,388.077,0,250C0,111.93,111.93,0,250,0z"
	/>
</g></g><g transform="translate(420,175) scale(0.07,0.07)"><g transform="" style="fill: rgb(0, 0, 128);">
<path d="M250,0c138.077,0,250,111.93,250,250c0,138.077-111.923,250-250,250C111.93,500,0,388.077,0,250C0,111.93,111.93,0,250,0z"
	/>
</g></g><g transform="translate(525,175) scale(0.07,0.07)"><g transform="" style="fill: rgb(0, 0, 128);">
<path d="M250,0c138.077,0,250,111.93,250,250c0,138.077-111.923,250-250,250C111.93,500,0,388.077,0,250C0,111.93,111.93,0,250,0z"
	/>
</g></g><g transform="translate(560,175) scale(0.07,0.07)"><g transform="" style="fill: rgb(0, 0, 128);">
<path d="M250,0c138.077,0,250,111.93,250,250c0,138.077-111.923,250-250,250C111.93,500,0,388.077,0,250C0,111.93,111.93,0,250,0z"
	/>
</g></g><g transform="translate(595,175) scale(0.07,0.07)"><g transform="" style="fill: rgb(0, 0, 128);">
<path d="M250,0c138.077,0,250,111.93,250,250c0,138.077-111.923,250-250,250C111.93,500,0,388.077,0,250C0,111.93,111.93,0,250,0z"
	/>
</g></g><g transform="translate(630,175) scale(0.07,0.07)"><g transform="" style="fill: rgb(0, 0, 128);">
<path d="M250,0c138.077,0,250,111.93,250,250c0,138.077-111.923,250-250,250C111.93,500,0,388.077,0,250C0,111.93,111.93,0,250,0z"
	/>
</g></g><g transform="translate(665,175) scale(0.07,0.07)"><g transform="" style="fill: rgb(0, 0, 128);">
<path d="M250,0c138.077,0,250,111.93,250,250c0,138.077-111.923,250-250,250C111.93,500,0,388.077,0,250C0,111.93,111.93,0,250,0z"
	/>
</g></g><g transform="translate(700,175) scale(0.07,0.07)"><g transform="" style="fill: rgb(0, 0, 128);">
<path d="M250,0c138.077,0,250,111.93,250,250c0,138.077-111.923,250-250,250C111.93,500,0,388.077,0,250C0,111.93,111.93,0,250,0z"
	/>
</g></g><g transform="translate(280,210) scale(0.07,0.07)"><g transform="" style="fill: rgb(0, 0, 128);">
<path d="M250,0c138.077,0,250,111.93,250,250c0,138.077-111.923,250-250,250C111.93,500,0,388.077,0,250C0,111.93,111.93,0,250,0z"
	/>
</g></g><g transform="translate(350,210) scale(0.07,0.07)"><g transform="" style="fill: rgb(0, 0, 128);">
<path d="M250,0c138.077,0,250,111.93,250,250c0,138.077-111.923,250-250,250C111.93,500,0,388.077,0,250C0,111.93,111.93,0,250,0z"
	/>
</g></g><g transform="translate(420,210) scale(0.07,0.07)"><g transform="" style="fill: rgb(0, 0, 128);">
<path d="M250,0c138.077,0,250,111.93,250,250c0,138.077-111.923,250-250,250C111.93,500,0,388.077,0,250C0,111.93,111.93,0,250,0z"
	/>
</g></g><g transform="translate(490,210) scale(0.07,0.07)"><g transform="" style="fill: rgb(0, 0, 128);">
<path d="M250,0c138.077,0,250,111.93,250,250c0,138.077-111.923,250-250,250C111.93,500,0,388.077,0,250C0,111.93,111.93,0,250,0z"
	/>
</g></g><g transform="translate(560,210) scale(0.07,0.07)"><g transform="" style="fill: rgb(0, 0, 128);">
<path d="M250,0c138.077,0,250,111.93,250,250c0,138.077-111.923,250-250,250C111.93,500,0,388.077,0,250C0,111.93,111.93,0,250,0z"
	/>
</g></g><g transform="translate(630,210) scale(0.07,0.07)"><g transform="" style="fill: rgb(0, 0, 128);">
<path d="M250,0c138.077,0,250,111.93,250,250c0,138.077-111.923,250-250,250C111.93,500,0,388.077,0,250C0,111.93,111.93,0,250,0z"
	/>
</g></g><g transform="translate(700,210) scale(0.07,0.07)"><g transform="" style="fill: rgb(0, 0, 128);">
<path d="M250,0c138.077,0,250,111.93,250,250c0,138.077-111.923,250-250,250C111.93,500,0,388.077,0,250C0,111.93,111.93,0,250,0z"
	/>
</g></g><g transform="translate(385,245) scale(0.07,0.07)"><g transform="" style="fill: rgb(0, 0, 128);">
<path d="M250,0c138.077,0,250,111.93,250,250c0,138.077-111.923,250-250,250C111.93,500,0,388.077,0,250C0,111.93,111.93,0,250,0z"
	/>
</g></g><g transform="translate(420,245) scale(0.07,0.07)"><g transform="" style="fill: rgb(0, 0, 128);">
<path d="M250,0c138.077,0,250,111.93,250,250c0,138.077-111.923,250-250,250C111.93,500,0,388.077,0,250C0,111.93,111.93,0,250,0z"
	/>
</g></g><g transform="translate(455,245) scale(0.07,0.07)"><g transform="" style="fill: rgb(0, 0, 128);">
<path d="M250,0c138.077,0,250,111.93,250,250c0,138.077-111.923,250-250,250C111.93,500,0,388.077,0,250C0,111.93,111.93,0,250,0z"
	/>
</g></g><g transform="translate(525,245) scale(0.07,0.07)"><g transform="" style="fill: rgb(0, 0, 128);">
<path d="M250,0c138.077,0,250,111.93,250,250c0,138.077-111.923,250-250,250C111.93,500,0,388.077,0,250C0,111.93,111.93,0,250,0z"
	/>
</g></g><g transform="translate(595,245) scale(0.07,0.07)"><g transform="" style="fill: rgb(0, 0, 128);">
<path d="M250,0c138.077,0,250,111.93,250,250c0,138.077-111.923,250-250,250C111.93,500,0,388.077,0,250C0,111.93,111.93,0,250,0z"
	/>
</g></g><g transform="translate(630,245) scale(0.07,0.07)"><g transform="" style="fill: rgb(0, 0, 128);">
<path d="M250,0c138.077,0,250,111.93,250,250c0,138.077-111.923,250-250,250C111.93,500,0,388.077,0,250C0,111.93,111.93,0,250,0z"
	/>
</g></g><g transform="translate(665,245) scale(0.07,0.07)"><g transform="" style="fill: rgb(0, 0, 128);">
<path d="M250,0c138.077,0,250,111.93,250,250c0,138.077-111.923,250-250,250C111.93,500,0,388.077,0,250C0,111.93,111.93,0,250,0z"
	/>
</g></g><g transform="translate(700,245) scale(0.07,0.07)"><g transform="" style="fill: rgb(0, 0, 128);">
<path d="M250,0c138.077,0,250,111.93,250,250c0,138.077-111.923,250-250,250C111.93,500,0,388.077,0,250C0,111.93,111.93,0,250,0z"
	/>
</g></g><g transform="translate(0,280) scale(0.07,0.07)"><g transform="" style="fill: rgb(0, 0, 128);">
<path d="M250,0c138.077,0,250,111.93,250,250c0,138.077-111.923,250-250,250C111.93,500,0,388.077,0,250C0,111.93,111.93,0,250,0z"
	/>
</g></g><g transform="translate(105,280) scale(0.07,0.07)"><g transform="" style="fill: rgb(0, 0, 128);">
<path d="M250,0c138.077,0,250,111.93,250,250c0,138.077-111.923,250-250,250C111.93,500,0,388.077,0,250C0,111.93,111.93,0,250,0z"
	/>
</g></g><g transform="translate(175,280) scale(0.07,0.07)"><g transform="" style="fill: rgb(0, 0, 128);">
<path d="M250,0c138.077,0,250,111.93,250,250c0,138.077-111.923,250-250,250C111.93,500,0,388.077,0,250C0,111.93,111.93,0,250,0z"
	/>
</g></g><g transform="translate(210,280) scale(0.07,0.07)"><g transform="" style="fill: rgb(0, 0, 128);">
<path d="M250,0c138.077,0,250,111.93,250,250c0,138.077-111.923,250-250,250C111.93,500,0,388.077,0,250C0,111.93,111.93,0,250,0z"
	/>
</g></g><g transform="translate(280,280) scale(0.07,0.07)"><g transform="" style="fill: rgb(0, 0, 128);">
<path d="M250,0c138.077,0,250,111.93,250,250c0,138.077-111.923,250-250,250C111.93,500,0,388.077,0,250C0,111.93,111.93,0,250,0z"
	/>
</g></g><g transform="translate(385,280) scale(0.07,0.07)"><g transform="" style="fill: rgb(0, 0, 128);">
<path d="M250,0c138.077,0,250,111.93,250,250c0,138.077-111.923,250-250,250C111.93,500,0,388.077,0,250C0,111.93,111.93,0,250,0z"
	/>
</g></g><g transform="translate(490,280) scale(0.07,0.07)"><g transform="" style="fill: rgb(0, 0, 128);">
<path d="M250,0c138.077,0,250,111.93,250,250c0,138.077-111.923,250-250,250C111.93,500,0,388.077,0,250C0,111.93,111.93,0,250,0z"
	/>
</g></g><g transform="translate(665,280) scale(0.07,0.07)"><g transform="" style="fill: rgb(0, 0, 128);">
<path d="M250,0c138.077,0,250,111.93,250,250c0,138.077-111.923,250-250,250C111.93,500,0,388.077,0,250C0,111.93,111.93,0,250,0z"
	/>
</g></g><g transform="translate(735,280) scale(0.07,0.07)"><g transform="" style="fill: rgb(0, 0, 128);">
<path d="M250,0c138.077,0,250,111.93,250,250c0,138.077-111.923,250-250,250C111.93,500,0,388.077,0,250C0,111.93,111.93,0,250,0z"
	/>
</g></g><g transform="translate(805,280) scale(0.07,0.07)"><g transform="" style="fill: rgb(0, 0, 128);">
<path d="M250,0c138.077,0,250,111.93,250,250c0,138.077-111.923,250-250,250C111.93,500,0,388.077,0,250C0,111.93,111.93,0,250,0z"
	/>
</g></g><g transform="translate(0,315) scale(0.07,0.07)"><g transform="" style="fill: rgb(0, 0, 128);">
<path d="M250,0c138.077,0,250,111.93,250,250c0,138.077-111.923,250-250,250C111.93,500,0,388.077,0,250C0,111.93,111.93,0,250,0z"
	/>
</g></g><g transform="translate(35,315) scale(0.07,0.07)"><g transform="" style="fill: rgb(0, 0, 128);">
<path d="M250,0c138.077,0,250,111.93,250,250c0,138.077-111.923,250-250,250C111.93,500,0,388.077,0,250C0,111.93,111.93,0,250,0z"
	/>
</g></g><g transform="translate(70,315) scale(0.07,0.07)"><g transform="" style="fill: rgb(0, 0, 128);">
<path d="M250,0c138.077,0,250,111.93,250,250c0,138.077-111.923,250-250,250C111.93,500,0,388.077,0,250C0,111.93,111.93,0,250,0z"
	/>
</g></g><g transform="translate(175,315) scale(0.07,0.07)"><g transform="" style="fill: rgb(0, 0, 128);">
<path d="M250,0c138.077,0,250,111.93,250,250c0,138.077-111.923,250-250,250C111.93,500,0,388.077,0,250C0,111.93,111.93,0,250,0z"
	/>
</g></g><g transform="translate(245,315) scale(0.07,0.07)"><g transform="" style="fill: rgb(0, 0, 128);">
<path d="M250,0c138.077,0,250,111.93,250,250c0,138.077-111.923,250-250,250C111.93,500,0,388.077,0,250C0,111.93,111.93,0,250,0z"
	/>
</g></g><g transform="translate(315,315) scale(0.07,0.07)"><g transform="" style="fill: rgb(0, 0, 128);">
<path d="M250,0c138.077,0,250,111.93,250,250c0,138.077-111.923,250-250,250C111.93,500,0,388.077,0,250C0,111.93,111.93,0,250,0z"
	/>
</g></g><g transform="translate(420,315) scale(0.07,0.07)"><g transform="" style="fill: rgb(0, 0, 128);">
<path d="M250,0c138.077,0,250,111.93,250,250c0,138.077-111.923,250-250,250C111.93,500,0,388.077,0,250C0,111.93,111.93,0,250,0z"
	/>
</g></g><g transform="translate(455,315) scale(0.07,0.07)"><g transform="" style="fill: rgb(0, 0, 128);">
<path d="M250,0c138.077,0,250,111.93,250,250c0,138.077-111.923,250-250,250C111.93,500,0,388.077,0,250C0,111.93,111.93,0,250,0z"
	/>
</g></g><g transform="translate(560,315) scale(0.07,0.07)"><g transform="" style="fill: rgb(0, 0, 128);">
<path d="M250,0c138.077,0,250,111.93,250,250c0,138.077-111.923,250-250,250C111.93,500,0,388.077,0,250C0,111.93,111.93,0,250,0z"
	/>
</g></g><g transform="translate(595,315) scale(0.07,0.07)"><g transform="" style="fill: rgb(0, 0, 128);">
<path d="M250,0c138.077,0,250,111.93,250,250c0,138.077-111.923,250-250,250C111.93,500,0,388.077,0,250C0,111.93,111.93,0,250,0z"
	/>
</g></g><g transform="translate(735,315) scale(0.07,0.07)"><g transform="" style="fill: rgb(0, 0, 128);">
<path d="M250,0c138.077,0,250,111.93,250,250c0,138.077-111.923,250-250,250C111.93,500,0,388.077,0,250C0,111.93,111.93,0,250,0z"
	/>
</g></g><g transform="translate(770,315) scale(0.07,0.07)"><g transform="" style="fill: rgb(0, 0, 128);">
<path d="M250,0c138.077,0,250,111.93,250,250c0,138.077-111.923,250-250,250C111.93,500,0,388.077,0,250C0,111.93,111.93,0,250,0z"
	/>
</g></g><g transform="translate(875,315) scale(0.07,0.07)"><g transform="" style="fill: rgb(0, 0, 128);">
<path d="M250,0c138.077,0,250,111.93,250,250c0,138.077-111.923,250-250,250C111.93,500,0,388.077,0,250C0,111.93,111.93,0,250,0z"
	/>
</g></g><g transform="translate(980,315) scale(0.07,0.07)"><g transform="" style="fill: rgb(0, 0, 128);">
<path d="M250,0c138.077,0,250,111.93,250,250c0,138.077-111.923,250-250,250C111.93,500,0,388.077,0,250C0,111.93,111.93,0,250,0z"
	/>
</g></g><g transform="translate(35,350) scale(0.07,0.07)"><g transform="" style="fill: rgb(0, 0, 128);">
<path d="M250,0c138.077,0,250,111.93,250,250c0,138.077-111.923,250-250,250C111.93,500,0,388.077,0,250C0,111.93,111.93,0,250,0z"
	/>
</g></g><g transform="translate(140,350) scale(0.07,0.07)"><g transform="" style="fill: rgb(0, 0, 128);">
<path d="M250,0c138.077,0,250,111.93,250,250c0,138.077-111.923,250-250,250C111.93,500,0,388.077,0,250C0,111.93,111.93,0,250,0z"
	/>
</g></g><g transform="translate(210,350) scale(0.07,0.07)"><g transform="" style="fill: rgb(0, 0, 128);">
<path d="M250,0c138.077,0,250,111.93,250,250c0,138.077-111.923,250-250,250C111.93,500,0,388.077,0,250C0,111.93,111.93,0,250,0z"
	/>
</g></g><g transform="translate(245,350) scale(0.07,0.07)"><g transform="" style="fill: rgb(0, 0, 128);">
<path d="M250,0c138.077,0,250,111.93,250,250c0,138.077-111.923,250-250,250C111.93,500,0,388.077,0,250C0,111.93,111.93,0,250,0z"
	/>
</g></g><g transform="translate(385,350) scale(0.07,0.07)"><g transform="" style="fill: rgb(0, 0, 128);">
<path d="M250,0c138.077,0,250,111.93,250,250c0,138.077-111.923,250-250,250C111.93,500,0,388.077,0,250C0,111.93,111.93,0,250,0z"
	/>
</g></g><g transform="translate(420,350) scale(0.07,0.07)"><g transform="" style="fill: rgb(0, 0, 128);">
<path d="M250,0c138.077,0,250,111.93,250,250c0,138.077-111.923,250-250,250C111.93,500,0,388.077,0,250C0,111.93,111.93,0,250,0z"
	/>
</g></g><g transform="translate(455,350) scale(0.07,0.07)"><g transform="" style="fill: rgb(0, 0, 128);">
<path d="M250,0c138.077,0,250,111.93,250,250c0,138.077-111.923,250-250,250C111.93,500,0,388.077,0,250C0,111.93,111.93,0,250,0z"
	/>
</g></g><g transform="translate(490,350) scale(0.07,0.07)"><g transform="" style="fill: rgb(0, 0, 128);">
<path d="M250,0c138.077,0,250,111.93,250,250c0,138.077-111.923,250-250,250C111.93,500,0,388.077,0,250C0,111.93,111.93,0,250,0z"
	/>
</g></g><g transform="translate(560,350) scale(0.07,0.07)"><g transform="" style="fill: rgb(0, 0, 128);">
<path d="M250,0c138.077,0,250,111.93,250,250c0,138.077-111.923,250-250,250C111.93,500,0,388.077,0,250C0,111.93,111.93,0,250,0z"
	/>
</g></g><g transform="translate(665,350) scale(0.07,0.07)"><g transform="" style="fill: rgb(0, 0, 128);">
<path d="M250,0c138.077,0,250,111.93,250,250c0,138.077-111.923,250-250,250C111.93,500,0,388.077,0,250C0,111.93,111.93,0,250,0z"
	/>
</g></g><g transform="translate(735,350) scale(0.07,0.07)"><g transform="" style="fill: rgb(0, 0, 128);">
<path d="M250,0c138.077,0,250,111.93,250,250c0,138.077-111.923,250-250,250C111.93,500,0,388.077,0,250C0,111.93,111.93,0,250,0z"
	/>
</g></g><g transform="translate(805,350) scale(0.07,0.07)"><g transform="" style="fill: rgb(0, 0, 128);">
<path d="M250,0c138.077,0,250,111.93,250,250c0,138.077-111.923,250-250,250C111.93,500,0,388.077,0,250C0,111.93,111.93,0,250,0z"
	/>
</g></g><g transform="translate(840,350) scale(0.07,0.07)"><g transform="" style="fill: rgb(0, 0, 128);">
<path d="M250,0c138.077,0,250,111.93,250,250c0,138.077-111.923,250-250,250C111.93,500,0,388.077,0,250C0,111.93,111.93,0,250,0z"
	/>
</g></g><g transform="translate(875,350) scale(0.07,0.07)"><g transform="" style="fill: rgb(0, 0, 128);">
<path d="M250,0c138.077,0,250,111.93,250,250c0,138.077-111.923,250-250,250C111.93,500,0,388.077,0,250C0,111.93,111.93,0,250,0z"
	/>
</g></g><g transform="translate(910,350) scale(0.07,0.07)"><g transform="" style="fill: rgb(0, 0, 128);">
<path d="M250,0c138.077,0,250,111.93,250,250c0,138.077-111.923,250-250,250C111.93,500,0,388.077,0,250C0,111.93,111.93,0,250,0z"
	/>
</g></g><g transform="translate(945,350) scale(0.07,0.07)"><g transform="" style="fill: rgb(0, 0, 128);">
<path d="M250,0c138.077,0,250,111.93,250,250c0,138.077-111.923,250-250,250C111.93,500,0,388.077,0,250C0,111.93,111.93,0,250,0z"
	/>
</g></g><g transform="translate(70,385) scale(0.07,0.07)"><g transform="" style="fill: rgb(0, 0, 128);">
<path d="M250,0c138.077,0,250,111.93,250,250c0,138.077-111.923,250-250,250C111.93,500,0,388.077,0,250C0,111.93,111.93,0,250,0z"
	/>
</g></g><g transform="translate(105,385) scale(0.07,0.07)"><g transform="" style="fill: rgb(0, 0, 128);">
<path d="M250,0c138.077,0,250,111.93,250,250c0,138.077-111.923,250-250,250C111.93,500,0,388.077,0,250C0,111.93,111.93,0,250,0z"
	/>
</g></g><g transform="translate(140,385) scale(0.07,0.07)"><g transform="" style="fill: rgb(0, 0, 128);">
<path d="M250,0c138.077,0,250,111.93,250,250c0,138.077-111.923,250-250,250C111.93,500,0,388.077,0,250C0,111.93,111.93,0,250,0z"
	/>
</g></g><g transform="translate(175,385) scale(0.07,0.07)"><g transform="" style="fill: rgb(0, 0, 128);">
<path d="M250,0c138.077,0,250,111.93,250,250c0,138.077-111.923,250-250,250C111.93,500,0,388.077,0,250C0,111.93,111.93,0,250,0z"
	/>
</g></g><g transform="translate(280,385) scale(0.07,0.07)"><g transform="" style="fill: rgb(0, 0, 128);">
<path d="M250,0c138.077,0,250,111.93,250,250c0,138.077-111.923,250-250,250C111.93,500,0,388.077,0,250C0,111.93,111.93,0,250,0z"
	/>
</g></g><g transform="translate(455,385) scale(0.07,0.07)"><g transform="" style="fill: rgb(0, 0, 128);">
<path d="M250,0c138.077,0,250,111.93,250,250c0,138.077-111.923,250-250,250C111.93,500,0,388.077,0,250C0,111.93,111.93,0,250,0z"
	/>
</g></g><g transform="translate(630,385) scale(0.07,0.07)"><g transform="" style="fill: rgb(0, 0, 128);">
<path d="M250,0c138.077,0,250,111.93,250,250c0,138.077-111.923,250-250,250C111.93,500,0,388.077,0,250C0,111.93,111.93,0,250,0z"
	/>
</g></g><g transform="translate(700,385) scale(0.07,0.07)"><g transform="" style="fill: rgb(0, 0, 128);">
<path d="M250,0c138.077,0,250,111.93,250,250c0,138.077-111.923,250-250,250C111.93,500,0,388.077,0,250C0,111.93,111.93,0,250,0z"
	/>
</g></g><g transform="translate(840,385) scale(0.07,0.07)"><g transform="" style="fill: rgb(0, 0, 128);">
<path d="M250,0c138.077,0,250,111.93,250,250c0,138.077-111.923,250-250,250C111.93,500,0,388.077,0,250C0,111.93,111.93,0,250,0z"
	/>
</g></g><g transform="translate(910,385) scale(0.07,0.07)"><g transform="" style="fill: rgb(0, 0, 128);">
<path d="M250,0c138.077,0,250,111.93,250,250c0,138.077-111.923,250-250,250C111.93,500,0,388.077,0,250C0,111.93,111.93,0,250,0z"
	/>
</g></g><g transform="translate(945,385) scale(0.07,0.07)"><g transform="" style="fill: rgb(0, 0, 128);">
<path d="M250,0c138.077,0,250,111.93,250,250c0,138.077-111.923,250-250,250C111.93,500,0,388.077,0,250C0,111.93,111.93,0,250,0z"
	/>
</g></g><g transform="translate(35,420) scale(0.07,0.07)"><g transform="" style="fill: rgb(0, 0, 128);">
<path d="M250,0c138.077,0,250,111.93,250,250c0,138.077-111.923,250-250,250C111.93,500,0,388.077,0,250C0,111.93,111.93,0,250,0z"
	/>
</g></g><g transform="translate(70,420) scale(0.07,0.07)"><g transform="" style="fill: rgb(0, 0, 128);">
<path d="M250,0c138.077,0,250,111.93,250,250c0,138.077-111.923,250-250,250C111.93,500,0,388.077,0,250C0,111.93,111.93,0,250,0z"
	/>
</g></g><g transform="translate(210,420) scale(0.07,0.07)"><g transform="" style="fill: rgb(0, 0, 128);">
<path d="M250,0c138.077,0,250,111.93,250,250c0,138.077-111.923,250-250,250C111.93,500,0,388.077,0,250C0,111.93,111.93,0,250,0z"
	/>
</g></g><g transform="translate(315,420) scale(0.07,0.07)"><g transform="" style="fill: rgb(0, 0, 128);">
<path d="M250,0c138.077,0,250,111.93,250,250c0,138.077-111.923,250-250,250C111.93,500,0,388.077,0,250C0,111.93,111.93,0,250,0z"
	/>
</g></g><g transform="translate(350,420) scale(0.07,0.07)"><g transform="" style="fill: rgb(0, 0, 128);">
<path d="M250,0c138.077,0,250,111.93,250,250c0,138.077-111.923,250-250,250C111.93,500,0,388.077,0,250C0,111.93,111.93,0,250,0z"
	/>
</g></g><g transform="translate(385,420) scale(0.07,0.07)"><g transform="" style="fill: rgb(0, 0, 128);">
<path d="M250,0c138.077,0,250,111.93,250,250c0,138.077-111.923,250-250,250C111.93,500,0,388.077,0,250C0,111.93,111.93,0,250,0z"
	/>
</g></g><g transform="translate(420,420) scale(0.07,0.07)"><g transform="" style="fill: rgb(0, 0, 128);">
<path d="M250,0c138.077,0,250,111.93,250,250c0,138.077-111.923,250-250,250C111.93,500,0,388.077,0,250C0,111.93,111.93,0,250,0z"
	/>
</g></g><g transform="translate(490,420) scale(0.07,0.07)"><g transform="" style="fill: rgb(0, 0, 128);">
<path d="M250,0c138.077,0,250,111.93,250,250c0,138.077-111.923,250-250,250C111.93,500,0,388.077,0,250C0,111.93,111.93,0,250,0z"
	/>
</g></g><g transform="translate(525,420) scale(0.07,0.07)"><g transform="" style="fill: rgb(0, 0, 128);">
<path d="M250,0c138.077,0,250,111.93,250,250c0,138.077-111.923,250-250,250C111.93,500,0,388.077,0,250C0,111.93,111.93,0,250,0z"
	/>
</g></g><g transform="translate(560,420) scale(0.07,0.07)"><g transform="" style="fill: rgb(0, 0, 128);">
<path d="M250,0c138.077,0,250,111.93,250,250c0,138.077-111.923,250-250,250C111.93,500,0,388.077,0,250C0,111.93,111.93,0,250,0z"
	/>
</g></g><g transform="translate(595,420) scale(0.07,0.07)"><g transform="" style="fill: rgb(0, 0, 128);">
<path d="M250,0c138.077,0,250,111.93,250,250c0,138.077-111.923,250-250,250C111.93,500,0,388.077,0,250C0,111.93,111.93,0,250,0z"
	/>
</g></g><g transform="translate(630,420) scale(0.07,0.07)"><g transform="" style="fill: rgb(0, 0, 128);">
<path d="M250,0c138.077,0,250,111.93,250,250c0,138.077-111.923,250-250,250C111.93,500,0,388.077,0,250C0,111.93,111.93,0,250,0z"
	/>
</g></g><g transform="translate(735,420) scale(0.07,0.07)"><g transform="" style="fill: rgb(0, 0, 128);">
<path d="M250,0c138.077,0,250,111.93,250,250c0,138.077-111.923,250-250,250C111.93,500,0,388.077,0,250C0,111.93,111.93,0,250,0z"
	/>
</g></g><g transform="translate(770,420) scale(0.07,0.07)"><g transform="" style="fill: rgb(0, 0, 128);">
<path d="M250,0c138.077,0,250,111.93,250,250c0,138.077-111.923,250-250,250C111.93,500,0,388.077,0,250C0,111.93,111.93,0,250,0z"
	/>
</g></g><g transform="translate(875,420) scale(0.07,0.07)"><g transform="" style="fill: rgb(0, 0, 128);">
<path d="M250,0c138.077,0,250,111.93,250,250c0,138.077-111.923,250-250,250C111.93,500,0,388.077,0,250C0,111.93,111.93,0,250,0z"
	/>
</g></g><g transform="translate(945,420) scale(0.07,0.07)"><g transform="" style="fill: rgb(0, 0, 128);">
<path d="M250,0c138.077,0,250,111.93,250,250c0,138.077-111.923,250-250,250C111.93,500,0,388.077,0,250C0,111.93,111.93,0,250,0z"
	/>
</g></g><g transform="translate(980,420) scale(0.07,0.07)"><g transform="" style="fill: rgb(0, 0, 128);">
<path d="M250,0c138.077,0,250,111.93,250,250c0,138.077-111.923,250-250,250C111.93,500,0,388.077,0,250C0,111.93,111.93,0,250,0z"
	/>
</g></g><g transform="translate(0,455) scale(0.07,0.07)"><g transform="" style="fill: rgb(0, 0, 128);">
<path d="M250,0c138.077,0,250,111.93,250,250c0,138.077-111.923,250-250,250C111.93,500,0,388.077,0,250C0,111.93,111.93,0,250,0z"
	/>
</g></g><g transform="translate(35,455) scale(0.07,0.07)"><g transform="" style="fill: rgb(0, 0, 128);">
<path d="M250,0c138.077,0,250,111.93,250,250c0,138.077-111.923,250-250,250C111.93,500,0,388.077,0,250C0,111.93,111.93,0,250,0z"
	/>
</g></g><g transform="translate(70,455) scale(0.07,0.07)"><g transform="" style="fill: rgb(0, 0, 128);">
<path d="M250,0c138.077,0,250,111.93,250,250c0,138.077-111.923,250-250,250C111.93,500,0,388.077,0,250C0,111.93,111.93,0,250,0z"
	/>
</g></g><g transform="translate(105,455) scale(0.07,0.07)"><g transform="" style="fill: rgb(0, 0, 128);">
<path d="M250,0c138.077,0,250,111.93,250,250c0,138.077-111.923,250-250,250C111.93,500,0,388.077,0,250C0,111.93,111.93,0,250,0z"
	/>
</g></g><g transform="translate(140,455) scale(0.07,0.07)"><g transform="" style="fill: rgb(0, 0, 128);">
<path d="M250,0c138.077,0,250,111.93,250,250c0,138.077-111.923,250-250,250C111.93,500,0,388.077,0,250C0,111.93,111.93,0,250,0z"
	/>
</g></g><g transform="translate(175,455) scale(0.07,0.07)"><g transform="" style="fill: rgb(0, 0, 128);">
<path d="M250,0c138.077,0,250,111.93,250,250c0,138.077-111.923,250-250,250C111.93,500,0,388.077,0,250C0,111.93,111.93,0,250,0z"
	/>
</g></g><g transform="translate(385,455) scale(0.07,0.07)"><g transform="" style="fill: rgb(0, 0, 128);">
<path d="M250,0c138.077,0,250,111.93,250,250c0,138.077-111.923,250-250,250C111.93,500,0,388.077,0,250C0,111.93,111.93,0,250,0z"
	/>
</g></g><g transform="translate(420,455) scale(0.07,0.07)"><g transform="" style="fill: rgb(0, 0, 128);">
<path d="M250,0c138.077,0,250,111.93,250,250c0,138.077-111.923,250-250,250C111.93,500,0,388.077,0,250C0,111.93,111.93,0,250,0z"
	/>
</g></g><g transform="translate(455,455) scale(0.07,0.07)"><g transform="" style="fill: rgb(0, 0, 128);">
<path d="M250,0c138.077,0,250,111.93,250,250c0,138.077-111.923,250-250,250C111.93,500,0,388.077,0,250C0,111.93,111.93,0,250,0z"
	/>
</g></g><g transform="translate(490,455) scale(0.07,0.07)"><g transform="" style="fill: rgb(0, 0, 128);">
<path d="M250,0c138.077,0,250,111.93,250,250c0,138.077-111.923,250-250,250C111.93,500,0,388.077,0,250C0,111.93,111.93,0,250,0z"
	/>
</g></g><g transform="translate(665,455) scale(0.07,0.07)"><g transform="" style="fill: rgb(0, 0, 128);">
<path d="M250,0c138.077,0,250,111.93,250,250c0,138.077-111.923,250-250,250C111.93,500,0,388.077,0,250C0,111.93,111.93,0,250,0z"
	/>
</g></g><g transform="translate(700,455) scale(0.07,0.07)"><g transform="" style="fill: rgb(0, 0, 128);">
<path d="M250,0c138.077,0,250,111.93,250,250c0,138.077-111.923,250-250,250C111.93,500,0,388.077,0,250C0,111.93,111.93,0,250,0z"
	/>
</g></g><g transform="translate(0,490) scale(0.07,0.07)"><g transform="" style="fill: rgb(0, 0, 128);">
<path d="M250,0c138.077,0,250,111.93,250,250c0,138.077-111.923,250-250,250C111.93,500,0,388.077,0,250C0,111.93,111.93,0,250,0z"
	/>
</g></g><g transform="translate(140,490) scale(0.07,0.07)"><g transform="" style="fill: rgb(0, 0, 128);">
<path d="M250,0c138.077,0,250,111.93,250,250c0,138.077-111.923,250-250,250C111.93,500,0,388.077,0,250C0,111.93,111.93,0,250,0z"
	/>
</g></g><g transform="translate(210,490) scale(0.07,0.07)"><g transform="" style="fill: rgb(0, 0, 128);">
<path d="M250,0c138.077,0,250,111.93,250,250c0,138.077-111.923,250-250,250C111.93,500,0,388.077,0,250C0,111.93,111.93,0,250,0z"
	/>
</g></g><g transform="translate(245,490) scale(0.07,0.07)"><g transform="" style="fill: rgb(0, 0, 128);">
<path d="M250,0c138.077,0,250,111.93,250,250c0,138.077-111.923,250-250,250C111.93,500,0,388.077,0,250C0,111.93,111.93,0,250,0z"
	/>
</g></g><g transform="translate(350,490) scale(0.07,0.07)"><g transform="" style="fill: rgb(0, 0, 128);">
<path d="M250,0c138.077,0,250,111.93,250,250c0,138.077-111.923,250-250,250C111.93,500,0,388.077,0,250C0,111.93,111.93,0,250,0z"
	/>
</g></g><g transform="translate(385,490) scale(0.07,0.07)"><g transform="" style="fill: rgb(0, 0, 128);">
<path d="M250,0c138.077,0,250,111.93,250,250c0,138.077-111.923,250-250,250C111.93,500,0,388.077,0,250C0,111.93,111.93,0,250,0z"
	/>
</g></g><g transform="translate(455,490) scale(0.07,0.07)"><g transform="" style="fill: rgb(0, 0, 128);">
<path d="M250,0c138.077,0,250,111.93,250,250c0,138.077-111.923,250-250,250C111.93,500,0,388.077,0,250C0,111.93,111.93,0,250,0z"
	/>
</g></g><g transform="translate(490,490) scale(0.07,0.07)"><g transform="" style="fill: rgb(0, 0, 128);">
<path d="M250,0c138.077,0,250,111.93,250,250c0,138.077-111.923,250-250,250C111.93,500,0,388.077,0,250C0,111.93,111.93,0,250,0z"
	/>
</g></g><g transform="translate(770,490) scale(0.07,0.07)"><g transform="" style="fill: rgb(0, 0, 128);">
<path d="M250,0c138.077,0,250,111.93,250,250c0,138.077-111.923,250-250,250C111.93,500,0,388.077,0,250C0,111.93,111.93,0,250,0z"
	/>
</g></g><g transform="translate(805,490) scale(0.07,0.07)"><g transform="" style="fill: rgb(0, 0, 128);">
<path d="M250,0c138.077,0,250,111.93,250,250c0,138.077-111.923,250-250,250C111.93,500,0,388.077,0,250C0,111.93,111.93,0,250,0z"
	/>
</g></g><g transform="translate(840,490) scale(0.07,0.07)"><g transform="" style="fill: rgb(0, 0, 128);">
<path d="M250,0c138.077,0,250,111.93,250,250c0,138.077-111.923,250-250,250C111.93,500,0,388.077,0,250C0,111.93,111.93,0,250,0z"
	/>
</g></g><g transform="translate(875,490) scale(0.07,0.07)"><g transform="" style="fill: rgb(0, 0, 128);">
<path d="M250,0c138.077,0,250,111.93,250,250c0,138.077-111.923,250-250,250C111.93,500,0,388.077,0,250C0,111.93,111.93,0,250,0z"
	/>
</g></g><g transform="translate(910,490) scale(0.07,0.07)"><g transform="" style="fill: rgb(0, 0, 128);">
<path d="M250,0c138.077,0,250,111.93,250,250c0,138.077-111.923,250-250,250C111.93,500,0,388.077,0,250C0,111.93,111.93,0,250,0z"
	/>
</g></g><g transform="translate(945,490) scale(0.07,0.07)"><g transform="" style="fill: rgb(0, 0, 128);">
<path d="M250,0c138.077,0,250,111.93,250,250c0,138.077-111.923,250-250,250C111.93,500,0,388.077,0,250C0,111.93,111.93,0,250,0z"
	/>
</g></g><g transform="translate(980,490) scale(0.07,0.07)"><g transform="" style="fill: rgb(0, 0, 128);">
<path d="M250,0c138.077,0,250,111.93,250,250c0,138.077-111.923,250-250,250C111.93,500,0,388.077,0,250C0,111.93,111.93,0,250,0z"
	/>
</g></g><g transform="translate(140,525) scale(0.07,0.07)"><g transform="" style="fill: rgb(0, 0, 128);">
<path d="M250,0c138.077,0,250,111.93,250,250c0,138.077-111.923,250-250,250C111.93,500,0,388.077,0,250C0,111.93,111.93,0,250,0z"
	/>
</g></g><g transform="translate(175,525) scale(0.07,0.07)"><g transform="" style="fill: rgb(0, 0, 128);">
<path d="M250,0c138.077,0,250,111.93,250,250c0,138.077-111.923,250-250,250C111.93,500,0,388.077,0,250C0,111.93,111.93,0,250,0z"
	/>
</g></g><g transform="translate(350,525) scale(0.07,0.07)"><g transform="" style="fill: rgb(0, 0, 128);">
<path d="M250,0c138.077,0,250,111.93,250,250c0,138.077-111.923,250-250,250C111.93,500,0,388.077,0,250C0,111.93,111.93,0,250,0z"
	/>
</g></g><g transform="translate(385,525) scale(0.07,0.07)"><g transform="" style="fill: rgb(0, 0, 128);">
<path d="M250,0c138.077,0,250,111.93,250,250c0,138.077-111.923,250-250,250C111.93,500,0,388.077,0,250C0,111.93,111.93,0,250,0z"
	/>
</g></g><g transform="translate(595,525) scale(0.07,0.07)"><g transform="" style="fill: rgb(0, 0, 128);">
<path d="M250,0c138.077,0,250,111.93,250,250c0,138.077-111.923,250-250,250C111.93,500,0,388.077,0,250C0,111.93,111.93,0,250,0z"
	/>
</g></g><g transform="translate(770,525) scale(0.07,0.07)"><g transform="" style="fill: rgb(0, 0, 128);">
<path d="M250,0c138.077,0,250,111.93,250,250c0,138.077-111.923,250-250,250C111.93,500,0,388.077,0,250C0,111.93,111.93,0,250,0z"
	/>
</g></g><g transform="translate(840,525) scale(0.07,0.07)"><g transform="" style="fill: rgb(0, 0, 128);">
<path d="M250,0c138.077,0,250,111.93,250,250c0,138.077-111.923,250-250,250C111.93,500,0,388.077,0,250C0,111.93,111.93,0,250,0z"
	/>
</g></g><g transform="translate(875,525) scale(0.07,0.07)"><g transform="" style="fill: rgb(0, 0, 128);">
<path d="M250,0c138.077,0,250,111.93,250,250c0,138.077-111.923,250-250,250C111.93,500,0,388.077,0,250C0,111.93,111.93,0,250,0z"
	/>
</g></g><g transform="translate(945,525) scale(0.07,0.07)"><g transform="" style="fill: rgb(0, 0, 128);">
<path d="M250,0c138.077,0,250,111.93,250,250c0,138.077-111.923,250-250,250C111.93,500,0,388.077,0,250C0,111.93,111.93,0,250,0z"
	/>
</g></g><g transform="translate(0,560) scale(0.07,0.07)"><g transform="" style="fill: rgb(0, 0, 128);">
<path d="M250,0c138.077,0,250,111.93,250,250c0,138.077-111.923,250-250,250C111.93,500,0,388.077,0,250C0,111.93,111.93,0,250,0z"
	/>
</g></g><g transform="translate(35,560) scale(0.07,0.07)"><g transform="" style="fill: rgb(0, 0, 128);">
<path d="M250,0c138.077,0,250,111.93,250,250c0,138.077-111.923,250-250,250C111.93,500,0,388.077,0,250C0,111.93,111.93,0,250,0z"
	/>
</g></g><g transform="translate(140,560) scale(0.07,0.07)"><g transform="" style="fill: rgb(0, 0, 128);">
<path d="M250,0c138.077,0,250,111.93,250,250c0,138.077-111.923,250-250,250C111.93,500,0,388.077,0,250C0,111.93,111.93,0,250,0z"
	/>
</g></g><g transform="translate(175,560) scale(0.07,0.07)"><g transform="" style="fill: rgb(0, 0, 128);">
<path d="M250,0c138.077,0,250,111.93,250,250c0,138.077-111.923,250-250,250C111.93,500,0,388.077,0,250C0,111.93,111.93,0,250,0z"
	/>
</g></g><g transform="translate(210,560) scale(0.07,0.07)"><g transform="" style="fill: rgb(0, 0, 128);">
<path d="M250,0c138.077,0,250,111.93,250,250c0,138.077-111.923,250-250,250C111.93,500,0,388.077,0,250C0,111.93,111.93,0,250,0z"
	/>
</g></g><g transform="translate(280,560) scale(0.07,0.07)"><g transform="" style="fill: rgb(0, 0, 128);">
<path d="M250,0c138.077,0,250,111.93,250,250c0,138.077-111.923,250-250,250C111.93,500,0,388.077,0,250C0,111.93,111.93,0,250,0z"
	/>
</g></g><g transform="translate(350,560) scale(0.07,0.07)"><g transform="" style="fill: rgb(0, 0, 128);">
<path d="M250,0c138.077,0,250,111.93,250,250c0,138.077-111.923,250-250,250C111.93,500,0,388.077,0,250C0,111.93,111.93,0,250,0z"
	/>
</g></g><g transform="translate(420,560) scale(0.07,0.07)"><g transform="" style="fill: rgb(0, 0, 128);">
<path d="M250,0c138.077,0,250,111.93,250,250c0,138.077-111.923,250-250,250C111.93,500,0,388.077,0,250C0,111.93,111.93,0,250,0z"
	/>
</g></g><g transform="translate(455,560) scale(0.07,0.07)"><g transform="" style="fill: rgb(0, 0, 128);">
<path d="M250,0c138.077,0,250,111.93,250,250c0,138.077-111.923,250-250,250C111.93,500,0,388.077,0,250C0,111.93,111.93,0,250,0z"
	/>
</g></g><g transform="translate(560,560) scale(0.07,0.07)"><g transform="" style="fill: rgb(0, 0, 128);">
<path d="M250,0c138.077,0,250,111.93,250,250c0,138.077-111.923,250-250,250C111.93,500,0,388.077,0,250C0,111.93,111.93,0,250,0z"
	/>
</g></g><g transform="translate(595,560) scale(0.07,0.07)"><g transform="" style="fill: rgb(0, 0, 128);">
<path d="M250,0c138.077,0,250,111.93,250,250c0,138.077-111.923,250-250,250C111.93,500,0,388.077,0,250C0,111.93,111.93,0,250,0z"
	/>
</g></g><g transform="translate(735,560) scale(0.07,0.07)"><g transform="" style="fill: rgb(0, 0, 128);">
<path d="M250,0c138.077,0,250,111.93,250,250c0,138.077-111.923,250-250,250C111.93,500,0,388.077,0,250C0,111.93,111.93,0,250,0z"
	/>
</g></g><g transform="translate(945,560) scale(0.07,0.07)"><g transform="" style="fill: rgb(0, 0, 128);">
<path d="M250,0c138.077,0,250,111.93,250,250c0,138.077-111.923,250-250,250C111.93,500,0,388.077,0,250C0,111.93,111.93,0,250,0z"
	/>
</g></g><g transform="translate(35,595) scale(0.07,0.07)"><g transform="" style="fill: rgb(0, 0, 128);">
<path d="M250,0c138.077,0,250,111.93,250,250c0,138.077-111.923,250-250,250C111.93,500,0,388.077,0,250C0,111.93,111.93,0,250,0z"
	/>
</g></g><g transform="translate(105,595) scale(0.07,0.07)"><g transform="" style="fill: rgb(0, 0, 128);">
<path d="M250,0c138.077,0,250,111.93,250,250c0,138.077-111.923,250-250,250C111.93,500,0,388.077,0,250C0,111.93,111.93,0,250,0z"
	/>
</g></g><g transform="translate(245,595) scale(0.07,0.07)"><g transform="" style="fill: rgb(0, 0, 128);">
<path d="M250,0c138.077,0,250,111.93,250,250c0,138.077-111.923,250-250,250C111.93,500,0,388.077,0,250C0,111.93,111.93,0,250,0z"
	/>
</g></g><g transform="translate(280,595) scale(0.07,0.07)"><g transform="" style="fill: rgb(0, 0, 128);">
<path d="M250,0c138.077,0,250,111.93,250,250c0,138.077-111.923,250-250,250C111.93,500,0,388.077,0,250C0,111.93,111.93,0,250,0z"
	/>
</g></g><g transform="translate(350,595) scale(0.07,0.07)"><g transform="" style="fill: rgb(0, 0, 128);">
<path d="M250,0c138.077,0,250,111.93,250,250c0,138.077-111.923,250-250,250C111.93,500,0,388.077,0,250C0,111.93,111.93,0,250,0z"
	/>
</g></g><g transform="translate(385,595) scale(0.07,0.07)"><g transform="" style="fill: rgb(0, 0, 128);">
<path d="M250,0c138.077,0,250,111.93,250,250c0,138.077-111.923,250-250,250C111.93,500,0,388.077,0,250C0,111.93,111.93,0,250,0z"
	/>
</g></g><g transform="translate(455,595) scale(0.07,0.07)"><g transform="" style="fill: rgb(0, 0, 128);">
<path d="M250,0c138.077,0,250,111.93,250,250c0,138.077-111.923,250-250,250C111.93,500,0,388.077,0,250C0,111.93,111.93,0,250,0z"
	/>
</g></g><g transform="translate(490,595) scale(0.07,0.07)"><g transform="" style="fill: rgb(0, 0, 128);">
<path d="M250,0c138.077,0,250,111.93,250,250c0,138.077-111.923,250-250,250C111.93,500,0,388.077,0,250C0,111.93,111.93,0,250,0z"
	/>
</g></g><g transform="translate(560,595) scale(0.07,0.07)"><g transform="" style="fill: rgb(0, 0, 128);">
<path d="M250,0c138.077,0,250,111.93,250,250c0,138.077-111.923,250-250,250C111.93,500,0,388.077,0,250C0,111.93,111.93,0,250,0z"
	/>
</g></g><g transform="translate(595,595) scale(0.07,0.07)"><g transform="" style="fill: rgb(0, 0, 128);">
<path d="M250,0c138.077,0,250,111.93,250,250c0,138.077-111.923,250-250,250C111.93,500,0,388.077,0,250C0,111.93,111.93,0,250,0z"
	/>
</g></g><g transform="translate(735,595) scale(0.07,0.07)"><g transform="" style="fill: rgb(0, 0, 128);">
<path d="M250,0c138.077,0,250,111.93,250,250c0,138.077-111.923,250-250,250C111.93,500,0,388.077,0,250C0,111.93,111.93,0,250,0z"
	/>
</g></g><g transform="translate(770,595) scale(0.07,0.07)"><g transform="" style="fill: rgb(0, 0, 128);">
<path d="M250,0c138.077,0,250,111.93,250,250c0,138.077-111.923,250-250,250C111.93,500,0,388.077,0,250C0,111.93,111.93,0,250,0z"
	/>
</g></g><g transform="translate(805,595) scale(0.07,0.07)"><g transform="" style="fill: rgb(0, 0, 128);">
<path d="M250,0c138.077,0,250,111.93,250,250c0,138.077-111.923,250-250,250C111.93,500,0,388.077,0,250C0,111.93,111.93,0,250,0z"
	/>
</g></g><g transform="translate(875,595) scale(0.07,0.07)"><g transform="" style="fill: rgb(0, 0, 128);">
<path d="M250,0c138.077,0,250,111.93,250,250c0,138.077-111.923,250-250,250C111.93,500,0,388.077,0,250C0,111.93,111.93,0,250,0z"
	/>
</g></g><g transform="translate(980,595) scale(0.07,0.07)"><g transform="" style="fill: rgb(0, 0, 128);">
<path d="M250,0c138.077,0,250,111.93,250,250c0,138.077-111.923,250-250,250C111.93,500,0,388.077,0,250C0,111.93,111.93,0,250,0z"
	/>
</g></g><g transform="translate(0,630) scale(0.07,0.07)"><g transform="" style="fill: rgb(0, 0, 128);">
<path d="M250,0c138.077,0,250,111.93,250,250c0,138.077-111.923,250-250,250C111.93,500,0,388.077,0,250C0,111.93,111.93,0,250,0z"
	/>
</g></g><g transform="translate(70,630) scale(0.07,0.07)"><g transform="" style="fill: rgb(0, 0, 128);">
<path d="M250,0c138.077,0,250,111.93,250,250c0,138.077-111.923,250-250,250C111.93,500,0,388.077,0,250C0,111.93,111.93,0,250,0z"
	/>
</g></g><g transform="translate(140,630) scale(0.07,0.07)"><g transform="" style="fill: rgb(0, 0, 128);">
<path d="M250,0c138.077,0,250,111.93,250,250c0,138.077-111.923,250-250,250C111.93,500,0,388.077,0,250C0,111.93,111.93,0,250,0z"
	/>
</g></g><g transform="translate(210,630) scale(0.07,0.07)"><g transform="" style="fill: rgb(0, 0, 128);">
<path d="M250,0c138.077,0,250,111.93,250,250c0,138.077-111.923,250-250,250C111.93,500,0,388.077,0,250C0,111.93,111.93,0,250,0z"
	/>
</g></g><g transform="translate(245,630) scale(0.07,0.07)"><g transform="" style="fill: rgb(0, 0, 128);">
<path d="M250,0c138.077,0,250,111.93,250,250c0,138.077-111.923,250-250,250C111.93,500,0,388.077,0,250C0,111.93,111.93,0,250,0z"
	/>
</g></g><g transform="translate(350,630) scale(0.07,0.07)"><g transform="" style="fill: rgb(0, 0, 128);">
<path d="M250,0c138.077,0,250,111.93,250,250c0,138.077-111.923,250-250,250C111.93,500,0,388.077,0,250C0,111.93,111.93,0,250,0z"
	/>
</g></g><g transform="translate(385,630) scale(0.07,0.07)"><g transform="" style="fill: rgb(0, 0, 128);">
<path d="M250,0c138.077,0,250,111.93,250,250c0,138.077-111.923,250-250,250C111.93,500,0,388.077,0,250C0,111.93,111.93,0,250,0z"
	/>
</g></g><g transform="translate(490,630) scale(0.07,0.07)"><g transform="" style="fill: rgb(0, 0, 128);">
<path d="M250,0c138.077,0,250,111.93,250,250c0,138.077-111.923,250-250,250C111.93,500,0,388.077,0,250C0,111.93,111.93,0,250,0z"
	/>
</g></g><g transform="translate(770,630) scale(0.07,0.07)"><g transform="" style="fill: rgb(0, 0, 128);">
<path d="M250,0c138.077,0,250,111.93,250,250c0,138.077-111.923,250-250,250C111.93,500,0,388.077,0,250C0,111.93,111.93,0,250,0z"
	/>
</g></g><g transform="translate(805,630) scale(0.07,0.07)"><g transform="" style="fill: rgb(0, 0, 128);">
<path d="M250,0c138.077,0,250,111.93,250,250c0,138.077-111.923,250-250,250C111.93,500,0,388.077,0,250C0,111.93,111.93,0,250,0z"
	/>
</g></g><g transform="translate(840,630) scale(0.07,0.07)"><g transform="" style="fill: rgb(0, 0, 128);">
<path d="M250,0c138.077,0,250,111.93,250,250c0,138.077-111.923,250-250,250C111.93,500,0,388.077,0,250C0,111.93,111.93,0,250,0z"
	/>
</g></g><g transform="translate(945,630) scale(0.07,0.07)"><g transform="" style="fill: rgb(0, 0, 128);">
<path d="M250,0c138.077,0,250,111.93,250,250c0,138.077-111.923,250-250,250C111.93,500,0,388.077,0,250C0,111.93,111.93,0,250,0z"
	/>
</g></g><g transform="translate(980,630) scale(0.07,0.07)"><g transform="" style="fill: rgb(0, 0, 128);">
<path d="M250,0c138.077,0,250,111.93,250,250c0,138.077-111.923,250-250,250C111.93,500,0,388.077,0,250C0,111.93,111.93,0,250,0z"
	/>
</g></g><g transform="translate(245,665) scale(0.07,0.07)"><g transform="" style="fill: rgb(0, 0, 128);">
<path d="M250,0c138.077,0,250,111.93,250,250c0,138.077-111.923,250-250,250C111.93,500,0,388.077,0,250C0,111.93,111.93,0,250,0z"
	/>
</g></g><g transform="translate(385,665) scale(0.07,0.07)"><g transform="" style="fill: rgb(0, 0, 128);">
<path d="M250,0c138.077,0,250,111.93,250,250c0,138.077-111.923,250-250,250C111.93,500,0,388.077,0,250C0,111.93,111.93,0,250,0z"
	/>
</g></g><g transform="translate(420,665) scale(0.07,0.07)"><g transform="" style="fill: rgb(0, 0, 128);">
<path d="M250,0c138.077,0,250,111.93,250,250c0,138.077-111.923,250-250,250C111.93,500,0,388.077,0,250C0,111.93,111.93,0,250,0z"
	/>
</g></g><g transform="translate(490,665) scale(0.07,0.07)"><g transform="" style="fill: rgb(0, 0, 128);">
<path d="M250,0c138.077,0,250,111.93,250,250c0,138.077-111.923,250-250,250C111.93,500,0,388.077,0,250C0,111.93,111.93,0,250,0z"
	/>
</g></g><g transform="translate(525,665) scale(0.07,0.07)"><g transform="" style="fill: rgb(0, 0, 128);">
<path d="M250,0c138.077,0,250,111.93,250,250c0,138.077-111.923,250-250,250C111.93,500,0,388.077,0,250C0,111.93,111.93,0,250,0z"
	/>
</g></g><g transform="translate(595,665) scale(0.07,0.07)"><g transform="" style="fill: rgb(0, 0, 128);">
<path d="M250,0c138.077,0,250,111.93,250,250c0,138.077-111.923,250-250,250C111.93,500,0,388.077,0,250C0,111.93,111.93,0,250,0z"
	/>
</g></g><g transform="translate(735,665) scale(0.07,0.07)"><g transform="" style="fill: rgb(0, 0, 128);">
<path d="M250,0c138.077,0,250,111.93,250,250c0,138.077-111.923,250-250,250C111.93,500,0,388.077,0,250C0,111.93,111.93,0,250,0z"
	/>
</g></g><g transform="translate(805,665) scale(0.07,0.07)"><g transform="" style="fill: rgb(0, 0, 128);">
<path d="M250,0c138.077,0,250,111.93,250,250c0,138.077-111.923,250-250,250C111.93,500,0,388.077,0,250C0,111.93,111.93,0,250,0z"
	/>
</g></g><g transform="translate(840,665) scale(0.07,0.07)"><g transform="" style="fill: rgb(0, 0, 128);">
<path d="M250,0c138.077,0,250,111.93,250,250c0,138.077-111.923,250-250,250C111.93,500,0,388.077,0,250C0,111.93,111.93,0,250,0z"
	/>
</g></g><g transform="translate(945,665) scale(0.07,0.07)"><g transform="" style="fill: rgb(0, 0, 128);">
<path d="M250,0c138.077,0,250,111.93,250,250c0,138.077-111.923,250-250,250C111.93,500,0,388.077,0,250C0,111.93,111.93,0,250,0z"
	/>
</g></g><g transform="translate(980,665) scale(0.07,0.07)"><g transform="" style="fill: rgb(0, 0, 128);">
<path d="M250,0c138.077,0,250,111.93,250,250c0,138.077-111.923,250-250,250C111.93,500,0,388.077,0,250C0,111.93,111.93,0,250,0z"
	/>
</g></g><g transform="translate(0,700) scale(0.07,0.07)"><g transform="" style="fill: rgb(0, 0, 128);">
<path d="M250,0c138.077,0,250,111.93,250,250c0,138.077-111.923,250-250,250C111.93,500,0,388.077,0,250C0,111.93,111.93,0,250,0z"
	/>
</g></g><g transform="translate(70,700) scale(0.07,0.07)"><g transform="" style="fill: rgb(0, 0, 128);">
<path d="M250,0c138.077,0,250,111.93,250,250c0,138.077-111.923,250-250,250C111.93,500,0,388.077,0,250C0,111.93,111.93,0,250,0z"
	/>
</g></g><g transform="translate(105,700) scale(0.07,0.07)"><g transform="" style="fill: rgb(0, 0, 128);">
<path d="M250,0c138.077,0,250,111.93,250,250c0,138.077-111.923,250-250,250C111.93,500,0,388.077,0,250C0,111.93,111.93,0,250,0z"
	/>
</g></g><g transform="translate(140,700) scale(0.07,0.07)"><g transform="" style="fill: rgb(0, 0, 128);">
<path d="M250,0c138.077,0,250,111.93,250,250c0,138.077-111.923,250-250,250C111.93,500,0,388.077,0,250C0,111.93,111.93,0,250,0z"
	/>
</g></g><g transform="translate(175,700) scale(0.07,0.07)"><g transform="" style="fill: rgb(0, 0, 128);">
<path d="M250,0c138.077,0,250,111.93,250,250c0,138.077-111.923,250-250,250C111.93,500,0,388.077,0,250C0,111.93,111.93,0,250,0z"
	/>
</g></g><g transform="translate(210,700) scale(0.07,0.07)"><g transform="" style="fill: rgb(0, 0, 128);">
<path d="M250,0c138.077,0,250,111.93,250,250c0,138.077-111.923,250-250,250C111.93,500,0,388.077,0,250C0,111.93,111.93,0,250,0z"
	/>
</g></g><g transform="translate(245,700) scale(0.07,0.07)"><g transform="" style="fill: rgb(0, 0, 128);">
<path d="M250,0c138.077,0,250,111.93,250,250c0,138.077-111.923,250-250,250C111.93,500,0,388.077,0,250C0,111.93,111.93,0,250,0z"
	/>
</g></g><g transform="translate(280,700) scale(0.07,0.07)"><g transform="" style="fill: rgb(0, 0, 128);">
<path d="M250,0c138.077,0,250,111.93,250,250c0,138.077-111.923,250-250,250C111.93,500,0,388.077,0,250C0,111.93,111.93,0,250,0z"
	/>
</g></g><g transform="translate(385,700) scale(0.07,0.07)"><g transform="" style="fill: rgb(0, 0, 128);">
<path d="M250,0c138.077,0,250,111.93,250,250c0,138.077-111.923,250-250,250C111.93,500,0,388.077,0,250C0,111.93,111.93,0,250,0z"
	/>
</g></g><g transform="translate(420,700) scale(0.07,0.07)"><g transform="" style="fill: rgb(0, 0, 128);">
<path d="M250,0c138.077,0,250,111.93,250,250c0,138.077-111.923,250-250,250C111.93,500,0,388.077,0,250C0,111.93,111.93,0,250,0z"
	/>
</g></g><g transform="translate(560,700) scale(0.07,0.07)"><g transform="" style="fill: rgb(0, 0, 128);">
<path d="M250,0c138.077,0,250,111.93,250,250c0,138.077-111.923,250-250,250C111.93,500,0,388.077,0,250C0,111.93,111.93,0,250,0z"
	/>
</g></g><g transform="translate(700,700) scale(0.07,0.07)"><g transform="" style="fill: rgb(0, 0, 128);">
<path d="M250,0c138.077,0,250,111.93,250,250c0,138.077-111.923,250-250,250C111.93,500,0,388.077,0,250C0,111.93,111.93,0,250,0z"
	/>
</g></g><g transform="translate(735,700) scale(0.07,0.07)"><g transform="" style="fill: rgb(0, 0, 128);">
<path d="M250,0c138.077,0,250,111.93,250,250c0,138.077-111.923,250-250,250C111.93,500,0,388.077,0,250C0,111.93,111.93,0,250,0z"
	/>
</g></g><g transform="translate(770,700) scale(0.07,0.07)"><g transform="" style="fill: rgb(0, 0, 128);">
<path d="M250,0c138.077,0,250,111.93,250,250c0,138.077-111.923,250-250,250C111.93,500,0,388.077,0,250C0,111.93,111.93,0,250,0z"
	/>
</g></g><g transform="translate(805,700) scale(0.07,0.07)"><g transform="" style="fill: rgb(0, 0, 128);">
<path d="M250,0c138.077,0,250,111.93,250,250c0,138.077-111.923,250-250,250C111.93,500,0,388.077,0,250C0,111.93,111.93,0,250,0z"
	/>
</g></g><g transform="translate(840,700) scale(0.07,0.07)"><g transform="" style="fill: rgb(0, 0, 128);">
<path d="M250,0c138.077,0,250,111.93,250,250c0,138.077-111.923,250-250,250C111.93,500,0,388.077,0,250C0,111.93,111.93,0,250,0z"
	/>
</g></g><g transform="translate(910,700) scale(0.07,0.07)"><g transform="" style="fill: rgb(0, 0, 128);">
<path d="M250,0c138.077,0,250,111.93,250,250c0,138.077-111.923,250-250,250C111.93,500,0,388.077,0,250C0,111.93,111.93,0,250,0z"
	/>
</g></g><g transform="translate(280,735) scale(0.07,0.07)"><g transform="" style="fill: rgb(0, 0, 128);">
<path d="M250,0c138.077,0,250,111.93,250,250c0,138.077-111.923,250-250,250C111.93,500,0,388.077,0,250C0,111.93,111.93,0,250,0z"
	/>
</g></g><g transform="translate(315,735) scale(0.07,0.07)"><g transform="" style="fill: rgb(0, 0, 128);">
<path d="M250,0c138.077,0,250,111.93,250,250c0,138.077-111.923,250-250,250C111.93,500,0,388.077,0,250C0,111.93,111.93,0,250,0z"
	/>
</g></g><g transform="translate(385,735) scale(0.07,0.07)"><g transform="" style="fill: rgb(0, 0, 128);">
<path d="M250,0c138.077,0,250,111.93,250,250c0,138.077-111.923,250-250,250C111.93,500,0,388.077,0,250C0,111.93,111.93,0,250,0z"
	/>
</g></g><g transform="translate(490,735) scale(0.07,0.07)"><g transform="" style="fill: rgb(0, 0, 128);">
<path d="M250,0c138.077,0,250,111.93,250,250c0,138.077-111.923,250-250,250C111.93,500,0,388.077,0,250C0,111.93,111.93,0,250,0z"
	/>
</g></g><g transform="translate(560,735) scale(0.07,0.07)"><g transform="" style="fill: rgb(0, 0, 128);">
<path d="M250,0c138.077,0,250,111.93,250,250c0,138.077-111.923,250-250,250C111.93,500,0,388.077,0,250C0,111.93,111.93,0,250,0z"
	/>
</g></g><g transform="translate(665,735) scale(0.07,0.07)"><g transform="" style="fill: rgb(0, 0, 128);">
<path d="M250,0c138.077,0,250,111.93,250,250c0,138.077-111.923,250-250,250C111.93,500,0,388.077,0,250C0,111.93,111.93,0,250,0z"
	/>
</g></g><g transform="translate(700,735) scale(0.07,0.07)"><g transform="" style="fill: rgb(0, 0, 128);">
<path d="M250,0c138.077,0,250,111.93,250,250c0,138.077-111.923,250-250,250C111.93,500,0,388.077,0,250C0,111.93,111.93,0,250,0z"
	/>
</g></g><g transform="translate(840,735) scale(0.07,0.07)"><g transform="" style="fill: rgb(0, 0, 128);">
<path d="M250,0c138.077,0,250,111.93,250,250c0,138.077-111.923,250-250,250C111.93,500,0,388.077,0,250C0,111.93,111.93,0,250,0z"
	/>
</g></g><g transform="translate(910,735) scale(0.07,0.07)"><g transform="" style="fill: rgb(0, 0, 128);">
<path d="M250,0c138.077,0,250,111.93,250,250c0,138.077-111.923,250-250,250C111.93,500,0,388.077,0,250C0,111.93,111.93,0,250,0z"
	/>
</g></g><g transform="translate(945,735) scale(0.07,0.07)"><g transform="" style="fill: rgb(0, 0, 128);">
<path d="M250,0c138.077,0,250,111.93,250,250c0,138.077-111.923,250-250,250C111.93,500,0,388.077,0,250C0,111.93,111.93,0,250,0z"
	/>
</g></g><g transform="translate(980,735) scale(0.07,0.07)"><g transform="" style="fill: rgb(0, 0, 128);">
<path d="M250,0c138.077,0,250,111.93,250,250c0,138.077-111.923,250-250,250C111.93,500,0,388.077,0,250C0,111.93,111.93,0,250,0z"
	/>
</g></g><g transform="translate(385,770) scale(0.07,0.07)"><g transform="" style="fill: rgb(0, 0, 128);">
<path d="M250,0c138.077,0,250,111.93,250,250c0,138.077-111.923,250-250,250C111.93,500,0,388.077,0,250C0,111.93,111.93,0,250,0z"
	/>
</g></g><g transform="translate(420,770) scale(0.07,0.07)"><g transform="" style="fill: rgb(0, 0, 128);">
<path d="M250,0c138.077,0,250,111.93,250,250c0,138.077-111.923,250-250,250C111.93,500,0,388.077,0,250C0,111.93,111.93,0,250,0z"
	/>
</g></g><g transform="translate(560,770) scale(0.07,0.07)"><g transform="" style="fill: rgb(0, 0, 128);">
<path d="M250,0c138.077,0,250,111.93,250,250c0,138.077-111.923,250-250,250C111.93,500,0,388.077,0,250C0,111.93,111.93,0,250,0z"
	/>
</g></g><g transform="translate(630,770) scale(0.07,0.07)"><g transform="" style="fill: rgb(0, 0, 128);">
<path d="M250,0c138.077,0,250,111.93,250,250c0,138.077-111.923,250-250,250C111.93,500,0,388.077,0,250C0,111.93,111.93,0,250,0z"
	/>
</g></g><g transform="translate(700,770) scale(0.07,0.07)"><g transform="" style="fill: rgb(0, 0, 128);">
<path d="M250,0c138.077,0,250,111.93,250,250c0,138.077-111.923,250-250,250C111.93,500,0,388.077,0,250C0,111.93,111.93,0,250,0z"
	/>
</g></g><g transform="translate(770,770) scale(0.07,0.07)"><g transform="" style="fill: rgb(0, 0, 128);">
<path d="M250,0c138.077,0,250,111.93,250,250c0,138.077-111.923,250-250,250C111.93,500,0,388.077,0,250C0,111.93,111.93,0,250,0z"
	/>
</g></g><g transform="translate(840,770) scale(0.07,0.07)"><g transform="" style="fill: rgb(0, 0, 128);">
<path d="M250,0c138.077,0,250,111.93,250,250c0,138.077-111.923,250-250,250C111.93,500,0,388.077,0,250C0,111.93,111.93,0,250,0z"
	/>
</g></g><g transform="translate(945,770) scale(0.07,0.07)"><g transform="" style="fill: rgb(0, 0, 128);">
<path d="M250,0c138.077,0,250,111.93,250,250c0,138.077-111.923,250-250,250C111.93,500,0,388.077,0,250C0,111.93,111.93,0,250,0z"
	/>
</g></g><g transform="translate(280,805) scale(0.07,0.07)"><g transform="" style="fill: rgb(0, 0, 128);">
<path d="M250,0c138.077,0,250,111.93,250,250c0,138.077-111.923,250-250,250C111.93,500,0,388.077,0,250C0,111.93,111.93,0,250,0z"
	/>
</g></g><g transform="translate(315,805) scale(0.07,0.07)"><g transform="" style="fill: rgb(0, 0, 128);">
<path d="M250,0c138.077,0,250,111.93,250,250c0,138.077-111.923,250-250,250C111.93,500,0,388.077,0,250C0,111.93,111.93,0,250,0z"
	/>
</g></g><g transform="translate(490,805) scale(0.07,0.07)"><g transform="" style="fill: rgb(0, 0, 128);">
<path d="M250,0c138.077,0,250,111.93,250,250c0,138.077-111.923,250-250,250C111.93,500,0,388.077,0,250C0,111.93,111.93,0,250,0z"
	/>
</g></g><g transform="translate(560,805) scale(0.07,0.07)"><g transform="" style="fill: rgb(0, 0, 128);">
<path d="M250,0c138.077,0,250,111.93,250,250c0,138.077-111.923,250-250,250C111.93,500,0,388.077,0,250C0,111.93,111.93,0,250,0z"
	/>
</g></g><g transform="translate(630,805) scale(0.07,0.07)"><g transform="" style="fill: rgb(0, 0, 128);">
<path d="M250,0c138.077,0,250,111.93,250,250c0,138.077-111.923,250-250,250C111.93,500,0,388.077,0,250C0,111.93,111.93,0,250,0z"
	/>
</g></g><g transform="translate(700,805) scale(0.07,0.07)"><g transform="" style="fill: rgb(0, 0, 128);">
<path d="M250,0c138.077,0,250,111.93,250,250c0,138.077-111.923,250-250,250C111.93,500,0,388.077,0,250C0,111.93,111.93,0,250,0z"
	/>
</g></g><g transform="translate(840,805) scale(0.07,0.07)"><g transform="" style="fill: rgb(0, 0, 128);">
<path d="M250,0c138.077,0,250,111.93,250,250c0,138.077-111.923,250-250,250C111.93,500,0,388.077,0,250C0,111.93,111.93,0,250,0z"
	/>
</g></g><g transform="translate(875,805) scale(0.07,0.07)"><g transform="" style="fill: rgb(0, 0, 128);">
<path d="M250,0c138.077,0,250,111.93,250,250c0,138.077-111.923,250-250,250C111.93,500,0,388.077,0,250C0,111.93,111.93,0,250,0z"
	/>
</g></g><g transform="translate(910,805) scale(0.07,0.07)"><g transform="" style="fill: rgb(0, 0, 128);">
<path d="M250,0c138.077,0,250,111.93,250,250c0,138.077-111.923,250-250,250C111.93,500,0,388.077,0,250C0,111.93,111.93,0,250,0z"
	/>
</g></g><g transform="translate(315,840) scale(0.07,0.07)"><g transform="" style="fill: rgb(0, 0, 128);">
<path d="M250,0c138.077,0,250,111.93,250,250c0,138.077-111.923,250-250,250C111.93,500,0,388.077,0,250C0,111.93,111.93,0,250,0z"
	/>
</g></g><g transform="translate(350,840) scale(0.07,0.07)"><g transform="" style="fill: rgb(0, 0, 128);">
<path d="M250,0c138.077,0,250,111.93,250,250c0,138.077-111.923,250-250,250C111.93,500,0,388.077,0,250C0,111.93,111.93,0,250,0z"
	/>
</g></g><g transform="translate(385,840) scale(0.07,0.07)"><g transform="" style="fill: rgb(0, 0, 128);">
<path d="M250,0c138.077,0,250,111.93,250,250c0,138.077-111.923,250-250,250C111.93,500,0,388.077,0,250C0,111.93,111.93,0,250,0z"
	/>
</g></g><g transform="translate(420,840) scale(0.07,0.07)"><g transform="" style="fill: rgb(0, 0, 128);">
<path d="M250,0c138.077,0,250,111.93,250,250c0,138.077-111.923,250-250,250C111.93,500,0,388.077,0,250C0,111.93,111.93,0,250,0z"
	/>
</g></g><g transform="translate(525,840) scale(0.07,0.07)"><g transform="" style="fill: rgb(0, 0, 128);">
<path d="M250,0c138.077,0,250,111.93,250,250c0,138.077-111.923,250-250,250C111.93,500,0,388.077,0,250C0,111.93,111.93,0,250,0z"
	/>
</g></g><g transform="translate(560,840) scale(0.07,0.07)"><g transform="" style="fill: rgb(0, 0, 128);">
<path d="M250,0c138.077,0,250,111.93,250,250c0,138.077-111.923,250-250,250C111.93,500,0,388.077,0,250C0,111.93,111.93,0,250,0z"
	/>
</g></g><g transform="translate(595,840) scale(0.07,0.07)"><g transform="" style="fill: rgb(0, 0, 128);">
<path d="M250,0c138.077,0,250,111.93,250,250c0,138.077-111.923,250-250,250C111.93,500,0,388.077,0,250C0,111.93,111.93,0,250,0z"
	/>
</g></g><g transform="translate(700,840) scale(0.07,0.07)"><g transform="" style="fill: rgb(0, 0, 128);">
<path d="M250,0c138.077,0,250,111.93,250,250c0,138.077-111.923,250-250,250C111.93,500,0,388.077,0,250C0,111.93,111.93,0,250,0z"
	/>
</g></g><g transform="translate(735,840) scale(0.07,0.07)"><g transform="" style="fill: rgb(0, 0, 128);">
<path d="M250,0c138.077,0,250,111.93,250,250c0,138.077-111.923,250-250,250C111.93,500,0,388.077,0,250C0,111.93,111.93,0,250,0z"
	/>
</g></g><g transform="translate(770,840) scale(0.07,0.07)"><g transform="" style="fill: rgb(0, 0, 128);">
<path d="M250,0c138.077,0,250,111.93,250,250c0,138.077-111.923,250-250,250C111.93,500,0,388.077,0,250C0,111.93,111.93,0,250,0z"
	/>
</g></g><g transform="translate(805,840) scale(0.07,0.07)"><g transform="" style="fill: rgb(0, 0, 128);">
<path d="M250,0c138.077,0,250,111.93,250,250c0,138.077-111.923,250-250,250C111.93,500,0,388.077,0,250C0,111.93,111.93,0,250,0z"
	/>
</g></g><g transform="translate(840,840) scale(0.07,0.07)"><g transform="" style="fill: rgb(0, 0, 128);">
<path d="M250,0c138.077,0,250,111.93,250,250c0,138.077-111.923,250-250,250C111.93,500,0,388.077,0,250C0,111.93,111.93,0,250,0z"
	/>
</g></g><g transform="translate(945,840) scale(0.07,0.07)"><g transform="" style="fill: rgb(0, 0, 128);">
<path d="M250,0c138.077,0,250,111.93,250,250c0,138.077-111.923,250-250,250C111.93,500,0,388.077,0,250C0,111.93,111.93,0,250,0z"
	/>
</g></g><g transform="translate(980,840) scale(0.07,0.07)"><g transform="" style="fill: rgb(0, 0, 128);">
<path d="M250,0c138.077,0,250,111.93,250,250c0,138.077-111.923,250-250,250C111.93,500,0,388.077,0,250C0,111.93,111.93,0,250,0z"
	/>
</g></g><g transform="translate(280,875) scale(0.07,0.07)"><g transform="" style="fill: rgb(0, 0, 128);">
<path d="M250,0c138.077,0,250,111.93,250,250c0,138.077-111.923,250-250,250C111.93,500,0,388.077,0,250C0,111.93,111.93,0,250,0z"
	/>
</g></g><g transform="translate(350,875) scale(0.07,0.07)"><g transform="" style="fill: rgb(0, 0, 128);">
<path d="M250,0c138.077,0,250,111.93,250,250c0,138.077-111.923,250-250,250C111.93,500,0,388.077,0,250C0,111.93,111.93,0,250,0z"
	/>
</g></g><g transform="translate(420,875) scale(0.07,0.07)"><g transform="" style="fill: rgb(0, 0, 128);">
<path d="M250,0c138.077,0,250,111.93,250,250c0,138.077-111.923,250-250,250C111.93,500,0,388.077,0,250C0,111.93,111.93,0,250,0z"
	/>
</g></g><g transform="translate(455,875) scale(0.07,0.07)"><g transform="" style="fill: rgb(0, 0, 128);">
<path d="M250,0c138.077,0,250,111.93,250,250c0,138.077-111.923,250-250,250C111.93,500,0,388.077,0,250C0,111.93,111.93,0,250,0z"
	/>
</g></g><g transform="translate(560,875) scale(0.07,0.07)"><g transform="" style="fill: rgb(0, 0, 128);">
<path d="M250,0c138.077,0,250,111.93,250,250c0,138.077-111.923,250-250,250C111.93,500,0,388.077,0,250C0,111.93,111.93,0,250,0z"
	/>
</g></g><g transform="translate(770,875) scale(0.07,0.07)"><g transform="" style="fill: rgb(0, 0, 128);">
<path d="M250,0c138.077,0,250,111.93,250,250c0,138.077-111.923,250-250,250C111.93,500,0,388.077,0,250C0,111.93,111.93,0,250,0z"
	/>
</g></g><g transform="translate(805,875) scale(0.07,0.07)"><g transform="" style="fill: rgb(0, 0, 128);">
<path d="M250,0c138.077,0,250,111.93,250,250c0,138.077-111.923,250-250,250C111.93,500,0,388.077,0,250C0,111.93,111.93,0,250,0z"
	/>
</g></g><g transform="translate(840,875) scale(0.07,0.07)"><g transform="" style="fill: rgb(0, 0, 128);">
<path d="M250,0c138.077,0,250,111.93,250,250c0,138.077-111.923,250-250,250C111.93,500,0,388.077,0,250C0,111.93,111.93,0,250,0z"
	/>
</g></g><g transform="translate(875,875) scale(0.07,0.07)"><g transform="" style="fill: rgb(0, 0, 128);">
<path d="M250,0c138.077,0,250,111.93,250,250c0,138.077-111.923,250-250,250C111.93,500,0,388.077,0,250C0,111.93,111.93,0,250,0z"
	/>
</g></g><g transform="translate(910,875) scale(0.07,0.07)"><g transform="" style="fill: rgb(0, 0, 128);">
<path d="M250,0c138.077,0,250,111.93,250,250c0,138.077-111.923,250-250,250C111.93,500,0,388.077,0,250C0,111.93,111.93,0,250,0z"
	/>
</g></g><g transform="translate(945,875) scale(0.07,0.07)"><g transform="" style="fill: rgb(0, 0, 128);">
<path d="M250,0c138.077,0,250,111.93,250,250c0,138.077-111.923,250-250,250C111.93,500,0,388.077,0,250C0,111.93,111.93,0,250,0z"
	/>
</g></g><g transform="translate(315,910) scale(0.07,0.07)"><g transform="" style="fill: rgb(0, 0, 128);">
<path d="M250,0c138.077,0,250,111.93,250,250c0,138.077-111.923,250-250,250C111.93,500,0,388.077,0,250C0,111.93,111.93,0,250,0z"
	/>
</g></g><g transform="translate(420,910) scale(0.07,0.07)"><g transform="" style="fill: rgb(0, 0, 128);">
<path d="M250,0c138.077,0,250,111.93,250,250c0,138.077-111.923,250-250,250C111.93,500,0,388.077,0,250C0,111.93,111.93,0,250,0z"
	/>
</g></g><g transform="translate(490,910) scale(0.07,0.07)"><g transform="" style="fill: rgb(0, 0, 128);">
<path d="M250,0c138.077,0,250,111.93,250,250c0,138.077-111.923,250-250,250C111.93,500,0,388.077,0,250C0,111.93,111.93,0,250,0z"
	/>
</g></g><g transform="translate(665,910) scale(0.07,0.07)"><g transform="" style="fill: rgb(0, 0, 128);">
<path d="M250,0c138.077,0,250,111.93,250,250c0,138.077-111.923,250-250,250C111.93,500,0,388.077,0,250C0,111.93,111.93,0,250,0z"
	/>
</g></g><g transform="translate(700,910) scale(0.07,0.07)"><g transform="" style="fill: rgb(0, 0, 128);">
<path d="M250,0c138.077,0,250,111.93,250,250c0,138.077-111.923,250-250,250C111.93,500,0,388.077,0,250C0,111.93,111.93,0,250,0z"
	/>
</g></g><g transform="translate(840,910) scale(0.07,0.07)"><g transform="" style="fill: rgb(0, 0, 128);">
<path d="M250,0c138.077,0,250,111.93,250,250c0,138.077-111.923,250-250,250C111.93,500,0,388.077,0,250C0,111.93,111.93,0,250,0z"
	/>
</g></g><g transform="translate(875,910) scale(0.07,0.07)"><g transform="" style="fill: rgb(0, 0, 128);">
<path d="M250,0c138.077,0,250,111.93,250,250c0,138.077-111.923,250-250,250C111.93,500,0,388.077,0,250C0,111.93,111.93,0,250,0z"
	/>
</g></g><g transform="translate(910,910) scale(0.07,0.07)"><g transform="" style="fill: rgb(0, 0, 128);">
<path d="M250,0c138.077,0,250,111.93,250,250c0,138.077-111.923,250-250,250C111.93,500,0,388.077,0,250C0,111.93,111.93,0,250,0z"
	/>
</g></g><g transform="translate(980,910) scale(0.07,0.07)"><g transform="" style="fill: rgb(0, 0, 128);">
<path d="M250,0c138.077,0,250,111.93,250,250c0,138.077-111.923,250-250,250C111.93,500,0,388.077,0,250C0,111.93,111.93,0,250,0z"
	/>
</g></g><g transform="translate(350,945) scale(0.07,0.07)"><g transform="" style="fill: rgb(0, 0, 128);">
<path d="M250,0c138.077,0,250,111.93,250,250c0,138.077-111.923,250-250,250C111.93,500,0,388.077,0,250C0,111.93,111.93,0,250,0z"
	/>
</g></g><g transform="translate(490,945) scale(0.07,0.07)"><g transform="" style="fill: rgb(0, 0, 128);">
<path d="M250,0c138.077,0,250,111.93,250,250c0,138.077-111.923,250-250,250C111.93,500,0,388.077,0,250C0,111.93,111.93,0,250,0z"
	/>
</g></g><g transform="translate(595,945) scale(0.07,0.07)"><g transform="" style="fill: rgb(0, 0, 128);">
<path d="M250,0c138.077,0,250,111.93,250,250c0,138.077-111.923,250-250,250C111.93,500,0,388.077,0,250C0,111.93,111.93,0,250,0z"
	/>
</g></g><g transform="translate(665,945) scale(0.07,0.07)"><g transform="" style="fill: rgb(0, 0, 128);">
<path d="M250,0c138.077,0,250,111.93,250,250c0,138.077-111.923,250-250,250C111.93,500,0,388.077,0,250C0,111.93,111.93,0,250,0z"
	/>
</g></g><g transform="translate(700,945) scale(0.07,0.07)"><g transform="" style="fill: rgb(0, 0, 128);">
<path d="M250,0c138.077,0,250,111.93,250,250c0,138.077-111.923,250-250,250C111.93,500,0,388.077,0,250C0,111.93,111.93,0,250,0z"
	/>
</g></g><g transform="translate(735,945) scale(0.07,0.07)"><g transform="" style="fill: rgb(0, 0, 128);">
<path d="M250,0c138.077,0,250,111.93,250,250c0,138.077-111.923,250-250,250C111.93,500,0,388.077,0,250C0,111.93,111.93,0,250,0z"
	/>
</g></g><g transform="translate(805,945) scale(0.07,0.07)"><g transform="" style="fill: rgb(0, 0, 128);">
<path d="M250,0c138.077,0,250,111.93,250,250c0,138.077-111.923,250-250,250C111.93,500,0,388.077,0,250C0,111.93,111.93,0,250,0z"
	/>
</g></g><g transform="translate(945,945) scale(0.07,0.07)"><g transform="" style="fill: rgb(0, 0, 128);">
<path d="M250,0c138.077,0,250,111.93,250,250c0,138.077-111.923,250-250,250C111.93,500,0,388.077,0,250C0,111.93,111.93,0,250,0z"
	/>
</g></g><g transform="translate(280,980) scale(0.07,0.07)"><g transform="" style="fill: rgb(0, 0, 128);">
<path d="M250,0c138.077,0,250,111.93,250,250c0,138.077-111.923,250-250,250C111.93,500,0,388.077,0,250C0,111.93,111.93,0,250,0z"
	/>
</g></g><g transform="translate(315,980) scale(0.07,0.07)"><g transform="" style="fill: rgb(0, 0, 128);">
<path d="M250,0c138.077,0,250,111.93,250,250c0,138.077-111.923,250-250,250C111.93,500,0,388.077,0,250C0,111.93,111.93,0,250,0z"
	/>
</g></g><g transform="translate(385,980) scale(0.07,0.07)"><g transform="" style="fill: rgb(0, 0, 128);">
<path d="M250,0c138.077,0,250,111.93,250,250c0,138.077-111.923,250-250,250C111.93,500,0,388.077,0,250C0,111.93,111.93,0,250,0z"
	/>
</g></g><g transform="translate(420,980) scale(0.07,0.07)"><g transform="" style="fill: rgb(0, 0, 128);">
<path d="M250,0c138.077,0,250,111.93,250,250c0,138.077-111.923,250-250,250C111.93,500,0,388.077,0,250C0,111.93,111.93,0,250,0z"
	/>
</g></g><g transform="translate(490,980) scale(0.07,0.07)"><g transform="" style="fill: rgb(0, 0, 128);">
<path d="M250,0c138.077,0,250,111.93,250,250c0,138.077-111.923,250-250,250C111.93,500,0,388.077,0,250C0,111.93,111.93,0,250,0z"
	/>
</g></g><g transform="translate(525,980) scale(0.07,0.07)"><g transform="" style="fill: rgb(0, 0, 128);">
<path d="M250,0c138.077,0,250,111.93,250,250c0,138.077-111.923,250-250,250C111.93,500,0,388.077,0,250C0,111.93,111.93,0,250,0z"
	/>
</g></g><g transform="translate(595,980) scale(0.07,0.07)"><g transform="" style="fill: rgb(0, 0, 128);">
<path d="M250,0c138.077,0,250,111.93,250,250c0,138.077-111.923,250-250,250C111.93,500,0,388.077,0,250C0,111.93,111.93,0,250,0z"
	/>
</g></g><g transform="translate(700,980) scale(0.07,0.07)"><g transform="" style="fill: rgb(0, 0, 128);">
<path d="M250,0c138.077,0,250,111.93,250,250c0,138.077-111.923,250-250,250C111.93,500,0,388.077,0,250C0,111.93,111.93,0,250,0z"
	/>
</g></g><g transform="translate(735,980) scale(0.07,0.07)"><g transform="" style="fill: rgb(0, 0, 128);">
<path d="M250,0c138.077,0,250,111.93,250,250c0,138.077-111.923,250-250,250C111.93,500,0,388.077,0,250C0,111.93,111.93,0,250,0z"
	/>
</g></g><g transform="translate(805,980) scale(0.07,0.07)"><g transform="" style="fill: rgb(0, 0, 128);">
<path d="M250,0c138.077,0,250,111.93,250,250c0,138.077-111.923,250-250,250C111.93,500,0,388.077,0,250C0,111.93,111.93,0,250,0z"
	/>
</g></g><g transform="translate(875,980) scale(0.07,0.07)"><g transform="" style="fill: rgb(0, 0, 128);">
<path d="M250,0c138.077,0,250,111.93,250,250c0,138.077-111.923,250-250,250C111.93,500,0,388.077,0,250C0,111.93,111.93,0,250,0z"
	/>
</g></g><g transform="translate(945,980) scale(0.07,0.07)"><g transform="" style="fill: rgb(0, 0, 128);">
<path d="M250,0c138.077,0,250,111.93,250,250c0,138.077-111.923,250-250,250C111.93,500,0,388.077,0,250C0,111.93,111.93,0,250,0z"
	/>
</g></g><g transform="translate(0,0) scale(2.45, 2.45)"><g transform="" style="fill: rgb(0, 0, 128);">
<g>
	<rect x="15" y="15" style="fill:none;" width="70" height="70"/>
	<path d="M85,0H15H0v15v70v15h15h70h15V85V15V0H85z M85,85H15V15h70V85z"/>
</g>
</g></g><g transform="translate(770,0) scale(2.45, 2.45)"><g transform="" style="fill: rgb(0, 0, 128);">
<g>
	<rect x="15" y="15" style="fill:none;" width="70" height="70"/>
	<path d="M85,0H15H0v15v70v15h15h70h15V85V15V0H85z M85,85H15V15h70V85z"/>
</g>
</g></g><g transform="translate(0,770) scale(2.45, 2.45)"><g transform="" style="fill: rgb(0, 0, 128);">
<g>
	<rect x="15" y="15" style="fill:none;" width="70" height="70"/>
	<path d="M85,0H15H0v15v70v15h15h70h15V85V15V0H85z M85,85H15V15h70V85z"/>
</g>
</g></g><g transform="translate(70,70) scale(1.05, 1.05)"><g transform=" translate(0,100) scale(1,-1) " style="fill: rgb(0, 0, 128);">
<path d="M100.061,99.984V0h-100l0.028,72.369C0.088,87.602,12.27,100,27.226,100h45.528c4.682,0,11.508,0,17.171-0.016
	C95.574,99.984,100.061,99.984,100.061,99.984z"/>
</g></g><g transform="translate(840,70) scale(1.05, 1.05)"><g transform=" translate(0,100) scale(1,-1)  translate(100, 0) scale(-1,1) " style="fill: rgb(0, 0, 128);">
<path d="M100.061,99.984V0h-100l0.028,72.369C0.088,87.602,12.27,100,27.226,100h45.528c4.682,0,11.508,0,17.171-0.016
	C95.574,99.984,100.061,99.984,100.061,99.984z"/>
</g></g><g transform="translate(70,840) scale(1.05, 1.05)"><g transform="" style="fill: rgb(0, 0, 128);">
<path d="M100.061,99.984V0h-100l0.028,72.369C0.088,87.602,12.27,100,27.226,100h45.528c4.682,0,11.508,0,17.171-0.016
	C95.574,99.984,100.061,99.984,100.061,99.984z"/>
</g></g></g></svg>