<?xml version="1.0" encoding="utf-8"?>
<!-- Uploaded to SVGRepo https://www.svgrepo.com -->
<svg version="1.2" baseProfile="tiny" id="Layer_1" xmlns="http://www.w3.org/2000/svg" xmlns:xlink="http://www.w3.org/1999/xlink"
	 x="0px" y="0px" viewBox="-999 1001 256 256" xml:space="preserve">
<path d="M-764.2,1185.4c0.9-0.6,1.7-1.1,2.7-2c6.1-5.5,8.8-15.2,8.8-30.2c0-42.2-23.4-119.6-54.2-138.7c0-2.7-2.4-5-5.3-5
	c-1.1,0-2.4,0.2-3.5,1.2c-0.1,0-0.2,0-0.2,0c-0.8-1-2.3-2.2-3.9-2.2c-1.7,0-3.2,1.2-3.9,2.2c0,0-0.1,0-0.2,0c-1.1-1-2.4-1.2-3.5-1.2
	c-3,0-5.3,2.2-5.3,4.9c-18.5,11.4-34.4,44-44.1,77.3l-8.3-19.2c0,0-11-27.2-27.2-27.2l-2.4,0l-14,33.6l-3.2-25.4l1.7-8.2h-11.4
	l2.2,8.2l-3.2,25.4l-14-33.6h-2.7c-14.8,0-24.1,12.1-24.1,27.2v64.3c0,12.5,16.5,12.5,16.5,0v-62.6h5.3l0,169.8
	c0,6.5,5.3,11.7,11.7,11.7c6.5,0,11.7-5.3,11.7-11.7l0-98.5h5.2l0,98.5c0,6.5,5.3,11.7,11.7,11.7s11.7-5.3,11.7-11.7l0.1-169.8h5.1
	l20.8,45.4c-2.3,12.3-3.5,23.8-3.5,33.5c0,14.9,2.7,24.6,8.8,30.2c0.9,0.9,1.7,1.4,2.7,2c-5.8,19.3-8.8,36.9-9.9,52.2
	c0,1.7-0.3,3.4-0.3,4.4h4.7h34.7v1.8c0,6.4,4.8,11.5,11.3,11.5c6.4,0,11.3-5,11.3-11.5v-1.7h3.8h3.4v1.8c0,6.4,4.8,11.5,11.3,11.5
	c6.4,0,11.3-5,11.3-11.5v-1.8h35.5h4.7c0-1-0.3-2.6-0.3-4.4C-755.4,1222.4-758.3,1204.9-764.2,1185.4z M-833.4,1017.7
	c-2.7,3.3-4.2,7.4-4.2,12.1c0,9.9,7.5,17.9,17.7,18.4c10.2-0.5,17.7-8.5,17.7-18.4c0-4.7-1.5-8.8-4.2-12.1
	c29,20.9,51.6,95.6,51.6,135.5c0,14.1-2.7,23.4-8.2,28.4c-0.6,0.6-1.1,0.9-1.7,1.4c-1.7-5.3-3.5-10.8-5.5-16.2
	c-0.6-1.1-0.9-2.4-1.4-3.5c-6.1-14.6-14.1-29.9-24.6-45.4c-0.6-0.9-2.4-4.1-2.7-6.4c-1.1-9.1,2.4-23.4,5-32l15.5,52.5
	c0.9,3.3,3,5.3,5,6.1c0.9,0.3,1.7,0.6,2.7,0.6c5.3,0.3,10.2-4.7,8.2-12.3l-17.6-57.5c-0.6-1.7-1.1-3.6-2.4-5.6
	c-3.5-6.1-9.3-12.7-19.8-12.7H-820h-17.6c-10.5,0-16.5,6.5-19.6,12.7c-1.1,2-1.7,3.9-2.4,5.6l-11.2,36.5l-4.6-10.7
	C-866.1,1062.5-850.9,1030.3-833.4,1017.7z M-876.9,1181.7c-5.5-5-8.2-14.4-8.2-28.4c0-8.8,1.1-19.2,3.1-30.4l5.1,11l0.1,0.1
	l0.1,0.3c0,0,0,0,0,0c1.5,3,4.5,4.7,7.6,4.6c0.9,0,1.7-0.3,2.7-0.6c2-0.9,4.1-3,5-6.1l15.5-52.5c2.7,8.5,6.1,22.9,5,32
	c-0.3,2.4-2,5.5-2.7,6.4c-10.5,15.5-18.5,30.8-24.6,45.4c-0.6,1.1-0.9,2.4-1.4,3.5c-2,5.3-3.8,10.8-5.5,16.2
	C-875.7,1182.6-876.3,1182.3-876.9,1181.7z M-820,1238v-0.1h-61.3c1.4-14.3,4.1-31.5,9.7-50.3c0-0.9,0.3-1.5,0.6-2.5
	c1.4-5,3.3-10.3,5.3-15.5c0.3-1.1,0.9-2,1.1-3.3c6.1-14.9,14.1-30.5,24.6-45.7c0.9-0.9,3-5,3.5-8.5c1.1-9.9-2.4-24.3-5-33.1
	c0.3-5.5,5.2-9.1,10.7-9.1c4.2,0,8.6,1.6,9.9,6l0.9,6.1l1.1-6c1-4.4,5.4-6,9.7-6c5.5,0,10.2,3.5,10.5,9.1c-2.7,8.8-6.1,23.2-5,33.1
	c0.6,3.5,2.7,7.7,3.5,8.5c10.5,15.2,18.5,30.8,24.6,45.7c0.3,1.1,0.9,2,1.1,3.3c2,5.3,3.8,10.5,5.3,15.5c0.3,0.9,0.6,1.5,0.6,2.5
	c5.5,18.8,8.2,36,9.7,50.3H-820z M-954.7,1020.1c0-10.5,8.5-19.1,19.1-19.1c10.5,0,19.1,8.5,19.1,19.1s-8.5,19.1-19.1,19.1
	C-946.1,1039.2-954.7,1030.6-954.7,1020.1z"/>
</svg>
