<?xml version="1.0" encoding="iso-8859-1"?>
<!-- Generator: Adobe Illustrator 16.0.0, SVG Export Plug-In . SVG Version: 6.00 Build 0)  -->
<!DOCTYPE svg PUBLIC "-//W3C//DTD SVG 1.1//EN" "http://www.w3.org/Graphics/SVG/1.1/DTD/svg11.dtd">
<svg version="1.1" id="Capa_1" xmlns="http://www.w3.org/2000/svg" xmlns:xlink="http://www.w3.org/1999/xlink" x="0px" y="0px"
	 width="45.812px" height="45.812px" viewBox="0 0 45.812 45.812" style="enable-background:new 0 0 45.812 45.812;"
	 xml:space="preserve">
<g>
	<g>
		<path d="M41.493,41.12c-0.25-1.295-3.41-1.802-7.339-1.269l-1.276-6.594c2.324-1.097,3.806-3.596,3.52-6.244l-1.791-16.505
			c-0.103-0.942-0.598-1.806-1.361-2.37c-0.753-0.556-1.735-0.783-2.665-0.602L25.65,8.49c-0.089-0.302-0.218-0.593-0.389-0.864
			c-0.507-0.8-1.332-1.357-2.263-1.527l-8.125-1.484c-0.939-0.172-1.909,0.066-2.658,0.63c-0.756,0.571-1.244,1.438-1.336,2.383
			L9.265,24.152c-0.26,2.652,1.249,5.131,3.586,6.199l-1.208,6.615c-3.935-0.49-7.088,0.049-7.325,1.346
			c-0.266,1.457,3.245,3.318,7.842,4.158c4.597,0.84,8.54,0.34,8.806-1.117c0.237-1.299-2.522-2.918-6.376-3.85l1.209-6.621
			c2.608-0.168,4.855-1.98,5.545-4.533l1.057-3.912l1.944,6.908c0.714,2.539,2.986,4.342,5.596,4.482l1.274,6.591
			c-3.844,0.972-6.586,2.62-6.335,3.915c0.281,1.454,4.229,1.914,8.817,1.025C38.283,44.473,41.774,42.573,41.493,41.12z
			 M19.905,20.195l-7.324,0.809L13.86,7.921c0.011-0.113,0.069-0.216,0.159-0.284c0.064-0.048,0.141-0.077,0.274-0.077
			c0.014,0,0.028,0,0.043,0.001l8.125,1.484c0.041,0.007,0.079,0.021,0.115,0.04l-0.104,0.021c-0.932,0.18-1.751,0.746-2.249,1.553
			c-0.498,0.808-0.636,1.793-0.379,2.706l0.972,3.453L19.905,20.195z M22.728,12.551c-0.031-0.108-0.014-0.225,0.045-0.321
			c0.059-0.097,0.156-0.164,0.268-0.185l8.186-1.577c0.087,0,0.172,0.028,0.239,0.078c0.091,0.068,0.151,0.171,0.163,0.283
			l1.418,13.069l-7.332-0.731L22.728,12.551z"/>
		<circle cx="17.599" cy="17.104" r="1.451"/>
		<circle cx="16.871" cy="10.999" r="1.157"/>
		<circle cx="21.434" cy="3.337" r="1.311"/>
		<circle cx="25.944" cy="1.311" r="1.311"/>
		<circle cx="26.841" cy="5.883" r="1.235"/>
		<circle cx="26.229" cy="15.535" r="1.283"/>
		<circle cx="29.566" cy="20.916" r="1.49"/>
	</g>
</g>
<g>
</g>
<g>
</g>
<g>
</g>
<g>
</g>
<g>
</g>
<g>
</g>
<g>
</g>
<g>
</g>
<g>
</g>
<g>
</g>
<g>
</g>
<g>
</g>
<g>
</g>
<g>
</g>
<g>
</g>
</svg>
