<?xml version="1.0" encoding="iso-8859-1"?>
<!-- Generator: Adobe Illustrator 19.0.0, SVG Export Plug-In . SVG Version: 6.00 Build 0)  -->
<svg version="1.1" id="Layer_1" xmlns="http://www.w3.org/2000/svg" xmlns:xlink="http://www.w3.org/1999/xlink" x="0px" y="0px"
	 viewBox="0 0 512 512" style="enable-background:new 0 0 512 512;" xml:space="preserve">
<g>
	<g>
		<g>
			<path d="M309.335,256H74.668c-3.349,0-6.528,1.579-8.533,4.267l-64,85.333c-0.171,0.213-0.128,0.512-0.277,0.725
				c-0.747,1.173-1.259,2.453-1.493,3.883c-0.064,0.405-0.213,0.768-0.235,1.195c-0.021,0.213-0.128,0.384-0.128,0.597v149.333
				C0.001,507.221,4.78,512,10.668,512h298.667c5.888,0,10.667-4.779,10.667-10.667V266.667
				C320.001,260.779,315.223,256,309.335,256z M128.001,458.667c0,5.888-4.779,10.667-10.667,10.667h-64
				c-5.888,0-10.667-4.779-10.667-10.667v-32c0-23.531,19.136-42.667,42.667-42.667c23.531,0,42.667,19.136,42.667,42.667V458.667z
				 M277.335,458.667c0,5.888-4.779,10.667-10.667,10.667h-64c-5.888,0-10.667-4.779-10.667-10.667v-32
				c0-23.531,19.136-42.667,42.667-42.667c23.531,0,42.667,19.136,42.667,42.667V458.667z"/>
			<path d="M510.593,218.709l-83.925-146.88V42.667h10.667c5.888,0,10.667-4.779,10.667-10.667s-4.779-10.667-10.667-10.667h-10.667
				V10.667C426.668,4.779,421.889,0,416.001,0c-5.888,0-10.667,4.779-10.667,10.667v10.667h-10.667
				c-5.888,0-10.667,4.779-10.667,10.667s4.779,10.667,10.667,10.667h10.667v29.163l-83.925,146.88
				c-1.877,3.307-1.877,7.36,0.021,10.645c1.92,3.285,5.44,5.312,9.237,5.312h10.667v266.667c0,5.888,4.779,10.667,10.667,10.667
				h128c5.888,0,10.667-4.779,10.667-10.667V234.667h10.667c3.797,0,7.317-2.027,9.237-5.312
				C512.471,226.069,512.471,222.016,510.593,218.709z M416.001,341.333c-17.643,0-32-14.357-32-32c0-17.643,14.357-32,32-32
				c17.643,0,32,14.357,32,32C448.001,326.976,433.644,341.333,416.001,341.333z"/>
		</g>
	</g>
</g>
<g>
</g>
<g>
</g>
<g>
</g>
<g>
</g>
<g>
</g>
<g>
</g>
<g>
</g>
<g>
</g>
<g>
</g>
<g>
</g>
<g>
</g>
<g>
</g>
<g>
</g>
<g>
</g>
<g>
</g>
</svg>
