<?xml version="1.0" encoding="iso-8859-1"?>
<!-- Generator: Adobe Illustrator 16.0.0, SVG Export Plug-In . SVG Version: 6.00 Build 0)  -->
<!DOCTYPE svg PUBLIC "-//W3C//DTD SVG 1.1//EN" "http://www.w3.org/Graphics/SVG/1.1/DTD/svg11.dtd">
<svg version="1.1" id="Capa_1" xmlns="http://www.w3.org/2000/svg" xmlns:xlink="http://www.w3.org/1999/xlink" x="0px" y="0px"
	 width="931.6px" height="931.6px" viewBox="0 0 931.6 931.6" style="enable-background:new 0 0 931.6 931.6;" xml:space="preserve"
	>
<g>
	<g>
		<path d="M219.2,931.6h162.7v-169c0-46.299,37.601-83.9,83.9-83.9c46.3,0,83.9,37.602,83.9,83.9v169h162.699
			c19.301,0,35-15.699,35-35V678.301c0-10.701-4.898-20.801-13.299-27.5l-142.1-112.4l0,0V336.7H339.6V538.4l0,0l-142.1,112.4
			c-8.4,6.6-13.3,16.799-13.3,27.5v218.398C184.2,916,199.9,931.6,219.2,931.6z M421.8,444.1c0-24.3,19.7-44,44-44
			c24.3,0,44,19.7,44,44v94.4h-44h-44V444.1z"/>
		<path d="M342.701,303.4h246.199c15.301,0,24.9-16.4,17.5-29.7L489.2,62.9c7.6-6.6,12.5-16.3,12.5-27.1c0-19.8-16-35.8-35.8-35.8
			c-19.8,0-35.8,16-35.8,35.8c0,10.9,4.8,20.6,12.5,27.1L325.201,273.7C317.8,287,327.5,303.4,342.701,303.4z"/>
	</g>
</g>
<g>
</g>
<g>
</g>
<g>
</g>
<g>
</g>
<g>
</g>
<g>
</g>
<g>
</g>
<g>
</g>
<g>
</g>
<g>
</g>
<g>
</g>
<g>
</g>
<g>
</g>
<g>
</g>
<g>
</g>
</svg>
