<?xml version="1.0" standalone="no"?>
<!DOCTYPE svg PUBLIC "-//W3C//DTD SVG 20010904//EN"
 "http://www.w3.org/TR/2001/REC-SVG-20010904/DTD/svg10.dtd">
<svg version="1.0" xmlns="http://www.w3.org/2000/svg"
 width="1280.000000pt" height="1113.000000pt" viewBox="0 0 1280.000000 1113.000000"
 preserveAspectRatio="xMidYMid meet">
<metadata>
Created by potrace 1.15, written by Peter Selinger 2001-2017
</metadata>
<g transform="translate(0.000000,1113.000000) scale(0.100000,-0.100000)"
fill="#000000" stroke="none">
<path d="M2050 11112 c-118 -40 -232 -113 -336 -216 -79 -78 -124 -157 -127
-217 -1 -28 -5 -38 -14 -35 -40 16 -155 28 -212 23 -105 -9 -175 -40 -246
-111 -34 -34 -68 -72 -77 -86 l-15 -25 -22 42 c-71 140 -262 238 -424 217 -63
-9 -81 -26 -72 -72 26 -142 179 -273 371 -320 l70 -17 0 -115 c0 -105 3 -122
32 -199 17 -46 67 -145 110 -220 l78 -137 -85 0 c-74 1 -94 -3 -143 -27 -92
-45 -158 -133 -174 -234 -8 -50 0 -89 21 -96 23 -10 222 50 311 93 45 22 94
54 108 71 15 17 29 29 33 26 9 -10 16 -142 9 -179 -3 -18 -34 -71 -67 -118
-34 -47 -78 -119 -100 -161 -25 -50 -54 -91 -85 -118 -26 -22 -50 -41 -53 -41
-3 0 -25 60 -49 133 -69 214 -154 368 -244 440 -50 40 -127 48 -175 18 -70
-44 -77 -180 -17 -339 58 -155 180 -302 282 -338 l48 -17 -32 -48 c-37 -56
-64 -159 -64 -247 0 -80 29 -184 90 -326 83 -193 101 -290 80 -425 -7 -45 -15
-81 -19 -81 -4 0 -12 15 -19 34 -38 105 -121 162 -223 153 -84 -7 -133 -34
-137 -73 -4 -42 33 -119 80 -166 59 -59 192 -118 268 -118 l26 0 13 -172 c27
-366 28 -359 -14 -571 -20 -106 -39 -198 -41 -205 -3 -10 -12 -11 -36 -5 -18
4 -62 8 -98 8 -111 -1 -206 -61 -231 -147 -11 -40 3 -66 46 -84 80 -33 182 -6
271 71 l41 35 6 -50 c3 -27 15 -70 26 -95 20 -44 20 -47 2 -114 l-17 -69 -41
53 c-49 63 -109 101 -186 116 -68 14 -118 6 -154 -26 -25 -21 -28 -30 -28 -87
0 -56 6 -76 42 -149 23 -46 41 -85 39 -86 -1 -1 -22 4 -48 11 -123 38 -233 28
-315 -27 -96 -65 -134 -160 -99 -251 41 -108 211 -206 359 -206 26 0 47 -3 47
-7 0 -3 -11 -20 -24 -37 -86 -114 -94 -223 -20 -292 31 -30 109 -57 138 -49 6
2 25 6 43 9 l31 5 -5 -77 c-12 -177 78 -353 316 -619 47 -53 103 -116 123
-139 l38 -42 -93 0 c-165 1 -336 -61 -429 -153 -43 -43 -48 -53 -48 -92 0 -88
71 -123 230 -114 157 9 320 61 432 138 71 48 69 49 119 -56 52 -109 57 -209
14 -298 -28 -59 -107 -140 -229 -234 -61 -47 -134 -108 -162 -134 l-50 -49
-28 72 c-86 224 -244 376 -401 386 -70 5 -143 -12 -152 -35 -16 -42 63 -227
141 -330 44 -59 110 -119 167 -155 40 -25 144 -58 183 -58 l34 0 -11 -37 c-19
-65 -13 -239 12 -313 11 -36 21 -84 21 -108 0 -54 20 -93 64 -127 68 -52 128
-258 98 -336 l-10 -26 -72 24 -71 24 -31 -22 c-30 -22 -30 -22 -26 -99 8 -138
83 -257 200 -316 29 -14 54 -28 56 -29 1 -1 -11 -24 -27 -51 -17 -27 -38 -80
-47 -117 -15 -58 -15 -78 -5 -133 15 -82 48 -158 106 -240 25 -36 45 -66 45
-67 0 -1 -42 -2 -93 -2 -82 0 -99 -4 -159 -32 -122 -57 -212 -166 -225 -270
-8 -70 12 -89 105 -105 151 -25 240 19 372 187 45 58 86 102 93 99 15 -5 73
-92 87 -129 24 -63 2 -195 -48 -289 -33 -63 -150 -183 -216 -221 -60 -35 -133
-52 -258 -61 -54 -4 -98 -11 -98 -15 0 -5 -13 -9 -30 -9 -26 0 -30 -4 -36 -36
-5 -26 -3 -39 7 -46 8 -5 61 -7 119 -5 95 3 121 9 263 57 237 79 309 133 446
334 118 173 221 294 235 274 1 -2 9 -23 16 -47 48 -149 235 -281 400 -281 64
0 71 2 86 26 16 24 16 29 1 78 -44 140 -156 252 -305 306 -43 16 -59 26 -50
32 43 27 204 78 413 129 336 83 468 130 566 199 l26 20 18 -45 c69 -182 333
-355 542 -355 96 0 105 28 44 130 -44 72 -41 80 24 80 98 -1 197 -71 467 -337
l136 -135 -18 -31 c-59 -101 -73 -309 -30 -421 12 -33 37 -75 56 -95 29 -32
38 -36 84 -36 46 0 55 4 84 36 94 102 106 328 25 468 -11 18 -18 35 -17 37 2
1 36 9 75 18 136 28 289 122 373 227 43 55 74 142 85 241 7 61 13 66 59 48 34
-12 111 -84 146 -135 15 -22 73 -130 128 -240 116 -232 157 -294 249 -389 261
-265 652 -366 958 -247 208 81 369 262 395 446 5 39 10 148 10 243 0 194 6
221 63 268 43 35 146 98 151 93 3 -2 -1 -42 -7 -88 -12 -91 0 -236 28 -346 21
-85 96 -232 146 -288 46 -53 131 -107 167 -107 29 0 45 36 67 156 13 68 16
124 13 237 l-5 147 66 0 c151 1 400 52 456 94 32 24 35 19 29 -43 -8 -74 10
-180 42 -242 48 -96 128 -152 262 -184 l73 -18 26 24 c25 23 25 26 19 119 -5
85 -22 177 -42 235 -6 18 -5 18 10 -2 44 -59 151 -82 230 -49 l34 14 6 -40
c16 -98 89 -178 163 -178 66 1 164 75 179 135 3 14 10 25 14 25 20 0 49 -55
65 -122 9 -40 19 -81 21 -90 8 -27 -61 -40 -369 -73 -152 -16 -261 -41 -382
-87 -153 -58 -152 -72 8 -178 158 -105 220 -125 356 -117 120 7 194 26 297 77
94 46 152 103 179 176 10 27 20 50 21 52 1 2 28 -10 60 -26 194 -97 350 -87
461 29 23 24 48 52 56 63 12 16 16 12 53 -50 57 -98 172 -216 246 -254 82 -40
120 -40 164 4 19 19 34 44 34 58 0 63 -114 235 -203 307 -57 46 -134 81 -179
81 -21 0 -38 2 -38 4 0 2 7 23 16 47 8 24 40 138 70 254 57 222 79 277 144
368 37 51 45 57 76 57 118 0 210 133 185 267 -9 47 -11 47 57 0 24 -16 78 -45
120 -64 42 -20 78 -37 80 -38 2 -2 -10 -29 -26 -61 -100 -202 -135 -387 -93
-481 23 -50 57 -74 115 -80 180 -21 290 344 182 599 -6 13 2 18 42 27 28 6
106 33 174 60 167 67 229 83 313 85 69 1 71 0 126 -45 147 -121 390 -177 652
-151 67 7 160 21 205 32 46 11 86 20 90 20 4 0 -56 -33 -134 -73 -229 -120
-355 -208 -416 -293 -24 -34 -39 -45 -67 -49 -71 -11 -225 -66 -282 -100 -126
-77 -199 -194 -199 -320 0 -55 3 -66 22 -79 43 -30 165 -10 262 42 51 27 159
126 188 172 l15 24 17 -51 c63 -190 312 -410 581 -514 163 -64 294 -86 465
-81 71 3 80 9 72 51 l-7 34 -145 2 c-114 1 -162 7 -223 24 -418 117 -745 456
-677 701 24 86 111 178 241 253 46 27 49 27 55 10 25 -70 106 -238 139 -288
22 -33 101 -123 176 -199 136 -140 136 -140 170 -130 39 11 47 30 48 121 3
155 -44 326 -118 430 -59 83 -143 145 -218 159 -18 3 -33 9 -33 13 0 3 58 36
128 74 160 85 254 154 293 215 29 45 30 51 27 137 -3 67 -11 106 -30 152 -65
159 -204 351 -384 530 l-102 101 42 6 c59 9 141 60 172 106 60 90 32 193 -64
241 l-53 26 27 18 c72 47 114 120 114 197 0 68 -32 134 -80 166 -31 21 -44 23
-111 20 -65 -4 -86 -10 -152 -46 l-77 -41 0 47 c0 126 -110 229 -255 239 -112
8 -165 -56 -173 -209 l-4 -86 -52 5 c-117 12 -209 -95 -210 -242 0 -81 22
-134 78 -182 l34 -31 -30 -28 c-138 -132 -101 -314 64 -314 53 0 146 30 189
61 17 12 31 20 33 18 1 -2 7 -30 14 -63 26 -133 84 -196 179 -196 65 0 99 13
140 52 39 38 56 84 57 160 1 72 1 72 159 -85 304 -303 464 -615 372 -725 -2
-2 -30 18 -63 45 -175 141 -548 257 -862 270 -223 9 -344 -20 -414 -97 -43
-47 -53 -89 -32 -131 20 -41 21 -39 -16 -40 -18 0 -72 -10 -120 -23 -49 -12
-88 -18 -88 -13 0 4 22 61 48 125 61 145 76 209 69 279 -12 113 -91 212 -223
280 -59 30 -77 36 -91 27 -26 -16 -50 -62 -67 -129 -38 -145 -6 -307 108 -532
25 -51 46 -97 46 -102 0 -5 -35 -22 -77 -37 -63 -24 -94 -29 -163 -29 -77 0
-92 4 -163 37 -81 39 -167 95 -167 110 0 4 10 8 23 8 12 0 45 13 73 30 82 47
112 127 79 208 -34 79 -141 152 -226 152 -27 0 -29 2 -22 28 5 15 8 53 7 85 0
72 -37 129 -104 163 -55 28 -145 32 -196 8 -32 -15 -76 -59 -100 -100 -11 -18
-12 -18 -35 3 -30 27 -90 53 -124 53 -104 0 -217 -141 -202 -252 3 -22 19 -62
35 -88 l29 -47 -33 -12 c-80 -29 -95 -105 -43 -210 63 -126 188 -217 287 -209
26 3 54 8 63 12 11 5 20 -6 38 -49 13 -30 42 -76 65 -102 l42 -46 -53 -78
c-56 -84 -86 -165 -129 -348 -76 -326 -154 -480 -268 -532 -46 -21 -112 -24
-167 -9 l-37 10 97 98 c155 156 219 304 208 482 -7 99 -40 205 -69 221 -37 20
-130 -65 -221 -201 -69 -102 -128 -291 -143 -459 -6 -58 -10 -71 -23 -69 -27
5 -58 65 -76 145 -20 88 -47 153 -76 179 -25 22 -24 34 2 34 32 0 89 30 106
56 24 37 32 90 20 136 -12 48 -81 124 -121 134 -14 3 -26 7 -26 9 0 2 9 22 20
46 40 89 15 164 -70 207 -77 38 -162 23 -214 -39 l-24 -28 -31 44 c-64 89
-148 110 -232 56 -103 -65 -137 -176 -83 -276 l25 -48 -30 -31 c-41 -42 -70
-112 -71 -166 l-1 -45 -28 55 c-38 73 -100 142 -172 191 -54 36 -59 43 -59 77
0 68 -43 136 -161 258 -165 171 -204 273 -179 472 23 181 44 224 159 317 74
59 81 63 81 40 0 -31 79 -102 152 -136 68 -32 80 -34 175 -34 90 0 104 2 117
20 52 68 -48 223 -186 288 -31 15 -71 27 -87 27 -17 0 -31 2 -31 4 0 2 13 33
30 68 16 34 30 69 30 76 0 8 12 4 33 -12 56 -43 127 -69 187 -70 73 0 116 23
141 77 23 51 24 98 4 163 -8 27 -15 52 -15 57 0 4 28 7 63 7 253 1 417 180
312 341 -29 45 -95 78 -170 86 -51 5 -55 7 -48 27 11 31 8 79 -7 115 -23 56
-94 76 -165 47 -38 -16 -41 -13 -20 24 8 14 14 48 15 77 0 45 -5 57 -32 89
-60 68 -180 104 -241 73 -12 -6 -37 -25 -54 -42 l-33 -31 -22 22 c-31 29 -107
62 -143 62 -55 0 -107 -21 -151 -62 -89 -82 -103 -210 -40 -359 6 -13 -4 -18
-50 -28 -108 -21 -164 -84 -164 -182 0 -100 66 -158 178 -159 48 0 66 -10 42
-25 -6 -4 -22 -28 -35 -55 -43 -86 -29 -168 38 -227 67 -59 156 -54 249 12 26
19 50 35 52 35 3 0 0 -17 -6 -37 -29 -107 -88 -182 -222 -287 -144 -112 -177
-162 -210 -317 l-6 -26 -52 18 c-110 38 -290 15 -428 -54 -64 -31 -65 -33 -65
-72 l0 -39 85 -43 c173 -86 342 -126 431 -101 25 7 28 4 47 -50 32 -87 75
-147 183 -257 131 -133 161 -204 125 -288 -40 -95 -159 -142 -416 -166 -186
-17 -171 -21 -198 54 -29 78 -89 174 -148 236 l-45 45 16 37 c19 47 20 182 0
265 -31 132 -97 227 -250 361 -118 103 -178 182 -205 268 -29 94 -25 117 8 53
37 -74 84 -99 151 -81 98 26 142 115 122 245 -6 39 -14 81 -17 93 l-6 23 43
-16 c67 -25 161 -24 196 2 65 48 93 156 58 224 -15 29 -79 70 -110 70 -19 0
-19 -1 5 51 11 24 20 54 20 67 0 36 -37 98 -77 129 -32 24 -46 28 -103 28 -58
0 -74 -4 -119 -33 -29 -17 -54 -32 -56 -32 -3 0 -12 15 -21 33 -21 41 -71 95
-106 113 -15 8 -47 14 -72 14 -92 0 -153 -92 -144 -217 l5 -68 -76 0 c-99 -1
-154 -27 -182 -88 -23 -52 -24 -79 -3 -123 19 -40 62 -68 129 -86 28 -6 51
-13 53 -14 1 0 -9 -25 -23 -55 -48 -103 -28 -191 55 -247 34 -23 66 -25 144
-11 19 4 19 4 53 -128 5 -22 4 -22 -58 -17 -138 12 -325 -57 -439 -163 -123
-113 -127 -143 -28 -189 53 -24 76 -29 143 -29 69 0 90 5 147 32 80 37 135 74
241 160 l78 64 42 -46 c23 -24 77 -76 121 -114 102 -90 161 -170 186 -251 27
-84 36 -196 21 -243 -16 -47 -70 -98 -145 -138 -145 -77 -225 -147 -247 -216
-6 -21 -14 -111 -16 -199 l-5 -162 -67 67 c-117 119 -260 200 -353 201 -58 0
-104 -34 -114 -86 -19 -103 165 -303 379 -408 l88 -44 -61 -60 c-106 -106
-222 -162 -382 -183 -152 -21 -342 20 -493 106 -195 111 -285 217 -425 500
-55 110 -118 228 -140 262 -56 86 -147 167 -210 188 l-50 17 22 40 c43 78 188
170 342 217 37 12 70 21 72 21 2 0 4 -30 4 -67 0 -90 14 -137 56 -182 48 -54
108 -70 169 -47 55 21 109 82 130 147 l16 48 36 -25 c123 -83 254 61 183 201
-11 22 -20 40 -20 42 0 1 23 12 50 24 58 25 90 63 90 109 0 79 -67 129 -171
130 l-56 0 5 49 c6 63 -24 133 -69 160 -45 28 -112 36 -150 21 -35 -15 -76
-71 -85 -118 -4 -17 -7 -32 -9 -32 -1 0 -17 7 -35 17 -53 26 -138 21 -199 -13
-146 -79 -175 -258 -57 -362 32 -28 34 -33 19 -38 -90 -31 -194 -80 -253 -119
-73 -49 -145 -128 -156 -171 -9 -35 -19 -29 -33 18 -22 74 -97 221 -135 265
-40 46 -97 70 -140 59 -40 -10 -93 -63 -112 -112 -25 -65 -15 -146 30 -240 65
-137 200 -244 307 -244 29 0 30 -1 24 -33 -4 -17 -14 -45 -22 -61 -58 -112
-265 -239 -403 -246 -121 -7 -104 -16 -299 173 -195 189 -276 255 -364 298
-79 37 -140 45 -201 24 l-49 -17 -46 50 c-25 27 -67 66 -93 87 -41 32 -47 41
-41 64 17 73 72 139 140 167 17 8 94 21 170 29 103 11 150 21 187 39 l48 24
59 -62 c140 -151 309 -177 361 -58 36 80 5 143 -95 191 -34 17 -91 35 -127 41
-121 21 -110 11 -93 80 l15 60 34 -30 c41 -35 72 -45 122 -36 41 6 76 29 105
68 22 29 28 100 14 155 -6 24 -5 33 4 33 7 0 32 9 56 21 124 60 84 232 -63
271 -34 9 -43 16 -39 28 19 47 16 106 -7 149 -32 62 -66 84 -138 89 -60 4 -61
4 -99 -36 -36 -38 -71 -113 -71 -154 0 -26 -12 -22 -46 13 -40 43 -123 89
-159 89 -82 0 -139 -84 -140 -206 0 -61 3 -75 27 -105 14 -19 44 -43 66 -53
l40 -18 -23 -45 c-48 -90 -40 -169 21 -210 32 -21 126 -21 177 0 20 9 37 13
37 9 -1 -32 -32 -128 -53 -165 -27 -46 -90 -87 -134 -87 -19 0 -21 7 -25 72
-6 118 -61 217 -156 286 -51 36 -73 40 -98 15 -14 -14 -16 -31 -12 -104 4 -71
12 -101 37 -155 18 -38 43 -82 55 -99 l24 -31 -49 -11 c-113 -27 -201 -99
-237 -194 -13 -34 -25 -52 -34 -50 -7 2 -38 13 -69 24 l-56 19 13 39 c46 131
12 325 -93 533 -19 37 -33 70 -31 71 2 2 36 -1 77 -7 131 -21 227 16 272 104
18 36 21 54 17 132 -4 74 -9 101 -31 143 -54 106 -143 173 -227 173 l-40 0 0
58 c0 108 -49 228 -111 274 -33 25 -85 36 -127 27 -72 -15 -145 -128 -160
-245 l-7 -58 -55 2 c-69 3 -121 -25 -164 -86 -25 -35 -31 -55 -34 -110 -3 -59
-1 -72 21 -104 l25 -36 -38 -41 c-60 -63 -74 -134 -41 -206 35 -77 105 -116
175 -96 l36 9 0 -61 c0 -71 20 -120 63 -151 36 -27 145 -28 193 -3 42 22 89
77 104 123 l13 38 17 -35 c10 -19 31 -72 46 -119 25 -72 29 -101 29 -190 0
-89 -3 -111 -22 -145 -25 -48 -92 -112 -154 -148 -67 -39 -249 -99 -254 -84
-2 6 -6 46 -9 87 -12 159 -88 351 -186 469 -109 130 -287 230 -426 239 -70 4
-72 4 -109 -30 -33 -30 -39 -42 -43 -90 -6 -71 26 -186 80 -292 31 -60 63
-102 122 -161 95 -94 167 -138 329 -201 64 -26 119 -50 122 -54 2 -4 -66 -24
-153 -45 -86 -21 -187 -48 -224 -61 l-68 -23 0 23 c0 36 -59 116 -109 148 -90
56 -209 73 -317 44 -74 -20 -169 -73 -210 -118 -19 -21 -39 -36 -44 -33 -23
14 -131 191 -145 237 -18 63 -19 140 -1 191 34 93 86 139 281 242 188 100 278
171 329 258 31 53 46 131 36 187 -4 22 -6 40 -5 40 2 0 22 -9 46 -20 52 -23
138 -26 178 -6 15 8 42 31 60 51 27 31 31 43 31 91 0 73 -35 145 -106 219 -30
32 -53 58 -52 59 67 28 100 53 118 92 29 58 19 107 -30 156 -29 30 -47 38 -88
44 -33 4 -52 11 -52 20 0 7 41 34 91 61 120 63 211 140 274 234 62 91 115 230
122 320 l5 65 57 -19 c100 -34 187 -10 288 78 66 58 84 105 58 154 -10 20 -31
39 -53 48 -75 31 -273 -1 -379 -63 -17 -10 -33 -16 -36 -14 -24 29 -78 137
-91 179 -36 122 -20 185 110 446 111 223 133 298 114 404 -6 35 -10 64 -8 65
49 31 62 44 75 74 34 82 8 156 -74 208 -24 15 -43 29 -43 31 0 2 12 20 27 39
37 50 44 129 14 178 -51 82 -180 99 -272 35 -26 -18 -27 -18 -49 6 -33 35 -84
56 -138 56 -57 1 -88 -10 -130 -46 -76 -64 -84 -152 -19 -222 11 -13 19 -24
16 -25 -2 -2 -44 -23 -92 -47 -137 -68 -169 -136 -108 -232 54 -86 156 -124
252 -95 30 10 60 20 67 22 6 3 12 -1 12 -9 0 -29 58 -94 99 -111 54 -21 76
-20 129 5 48 24 102 95 102 136 0 68 50 -26 57 -108 8 -79 -15 -147 -110 -334
-45 -88 -83 -162 -84 -164 -1 -2 -28 20 -60 49 -129 118 -255 132 -386 41 -94
-65 -104 -86 -59 -128 73 -68 219 -115 359 -116 l101 0 -5 -32 c-12 -72 28
-193 109 -331 80 -136 84 -215 19 -372 -51 -124 -107 -197 -205 -266 -53 -38
-137 -86 -149 -86 -3 0 -7 14 -11 31 -9 44 -72 105 -125 119 -82 22 -155 -9
-192 -81 l-20 -40 -51 56 c-76 83 -155 117 -222 95 -44 -14 -102 -78 -115
-127 -18 -63 -13 -162 12 -235 l23 -67 -48 -11 c-52 -11 -122 -42 -151 -68 -9
-8 -20 -13 -23 -9 -3 3 -9 44 -11 91 -6 94 8 190 37 246 22 43 98 116 205 195
139 104 221 189 262 271 l36 73 50 -72 c61 -86 169 -197 217 -222 51 -27 114
-24 146 6 88 82 66 218 -55 351 -94 103 -220 144 -317 103 -26 -11 -36 -11
-38 -2 -46 169 -98 249 -326 497 -216 235 -298 341 -355 461 -61 128 -66 232
-18 322 l18 32 6 -80 c14 -187 79 -275 201 -275 175 0 343 264 325 507 l-6 74
32 -8 c18 -4 75 -8 127 -8 85 0 100 3 141 27 134 79 163 201 74 306 -58 67
-210 131 -313 132 l-34 0 31 39 c17 21 46 70 64 108 29 63 32 76 32 168 0 88
-3 105 -25 145 -30 53 -96 105 -153 121 -63 17 -193 7 -243 -19 -22 -11 -46
-28 -53 -36 -22 -26 -29 -19 -41 40 -15 70 -8 132 37 354 41 197 45 283 23
510 -7 74 -11 178 -9 230 4 84 8 103 40 170 40 84 113 171 159 190 72 30 225
-13 298 -83 56 -54 84 -122 37 -91 -39 25 -142 29 -184 7 -58 -30 -76 -65 -76
-141 1 -42 7 -78 17 -98 16 -30 16 -30 -19 -58 -55 -44 -73 -82 -73 -154 0
-72 20 -120 72 -168 54 -51 92 -66 162 -62 54 3 61 1 65 -17 11 -62 76 -105
158 -105 90 0 172 76 173 158 0 29 3 32 33 32 84 0 141 70 141 174 -1 69 -18
111 -63 149 l-31 25 20 44 c74 163 -86 294 -235 192 -21 -14 -38 -24 -40 -22
-1 2 -5 19 -8 38 l-5 35 162 1 c140 1 174 4 260 27 54 15 128 41 165 59 62 31
66 35 69 70 3 34 -1 40 -40 69 -55 40 -147 83 -218 99 -75 18 -203 16 -271 -3
-70 -21 -170 -87 -206 -136 l-26 -37 -76 38 c-115 58 -227 69 -306 31 -16 -9
-54 -38 -82 -66 l-53 -51 0 75 c0 95 -26 194 -90 343 -27 65 -57 143 -66 174
-32 109 -15 270 36 334 11 14 64 55 117 90 114 75 160 123 204 210 61 122 88
159 216 297 61 66 172 161 188 161 3 0 -19 -30 -48 -67 -174 -217 -215 -424
-125 -636 26 -61 62 -82 116 -68 80 22 152 120 201 276 53 164 65 246 66 422
l0 163 51 0 c118 0 214 -57 293 -176 71 -106 76 -130 61 -301 l-12 -141 -52
55 c-44 48 -57 56 -97 60 -130 15 -184 -102 -121 -262 l28 -71 -62 4 c-104 7
-164 -39 -164 -126 0 -56 34 -101 102 -135 l57 -29 -30 -40 c-60 -83 -24 -214
73 -264 49 -25 117 -11 165 35 28 26 30 26 37 -3 3 -13 24 -40 46 -60 33 -29
48 -36 83 -36 82 0 151 68 170 169 11 57 13 60 47 66 144 26 260 146 260 269
0 88 -56 146 -158 162 l-40 6 15 42 c22 62 21 163 -3 211 -29 60 -77 88 -142
83 -33 -3 -64 -13 -82 -26 -16 -12 -31 -22 -33 -22 -2 0 -1 53 1 118 4 131 -3
165 -59 259 -176 292 -498 313 -801 52 l-56 -49 -11 66 c-18 101 -52 181 -157
364 -122 216 -147 284 -142 405 3 80 7 99 40 168 63 131 179 227 274 227 22 0
22 -1 -12 -67 -51 -102 -68 -179 -67 -313 1 -171 50 -321 145 -448 54 -72 71
-69 120 23 64 119 100 245 101 350 0 105 -9 143 -69 282 -24 55 -47 116 -51
133 -6 32 -6 32 28 25 62 -13 175 -65 250 -115 71 -47 129 -94 129 -103 0 -3
-15 -8 -33 -11 -40 -8 -111 -66 -134 -110 -24 -46 -21 -140 6 -198 55 -115
163 -191 270 -191 31 0 66 5 79 12 20 11 22 10 22 -15 0 -92 67 -178 162 -208
131 -41 211 31 211 188 l0 71 39 -4 c85 -8 152 40 197 139 59 130 -4 215 -181
245 l-38 6 22 42 c46 90 22 199 -52 238 -47 26 -88 24 -144 -6 -26 -14 -49
-25 -51 -25 -2 0 -6 13 -10 29 -18 81 -105 161 -175 161 -106 0 -169 -88 -156
-218 l7 -65 -33 29 c-18 16 -57 44 -85 62 l-53 34 59 39 c122 81 331 300 381
400 26 51 25 81 -5 109 -33 31 -103 36 -175 12z m-215 -428 c-39 -32 -95 -65
-95 -56 0 7 110 82 120 82 3 -1 -8 -12 -25 -26z m290 -103 c3 -5 1 -12 -5 -16
-5 -3 -10 1 -10 9 0 18 6 21 15 7z m-55 -41 c0 -5 -4 -10 -10 -10 -5 0 -10 5
-10 10 0 6 5 10 10 10 6 0 10 -4 10 -10z m385 -100 c-3 -5 -11 -10 -16 -10 -6
0 -7 5 -4 10 3 6 11 10 16 10 6 0 7 -4 4 -10z m-35 -44 c0 -3 -4 -8 -10 -11
-5 -3 -10 -1 -10 4 0 6 5 11 10 11 6 0 10 -2 10 -4z m-130 -235 c0 -11 -39
-25 -47 -18 -3 3 -2 10 2 16 8 13 45 15 45 2z m70 -31 c0 -5 -4 -10 -10 -10
-5 0 -10 5 -10 10 0 6 5 10 10 10 6 0 10 -4 10 -10z m210 -70 c0 -5 -5 -10
-11 -10 -5 0 -7 5 -4 10 3 6 8 10 11 10 2 0 4 -4 4 -10z m-465 -80 c3 -5 1
-10 -4 -10 -6 0 -11 5 -11 10 0 6 2 10 4 10 3 0 8 -4 11 -10z m250 -113 c13
-10 16 -21 11 -40 -9 -36 -22 -34 -35 4 -18 52 -12 62 24 36z m5 -1036 c0 -12
-20 -25 -27 -18 -7 7 6 27 18 27 5 0 9 -4 9 -9z m-306 -131 c7 -24 6 -24 -8
-6 -9 11 -16 29 -16 40 1 17 2 18 9 6 5 -8 12 -26 15 -40z m226 30 c0 -5 -5
-10 -11 -10 -5 0 -7 5 -4 10 3 6 8 10 11 10 2 0 4 -4 4 -10z m90 -208 c0 -15
-4 -33 -9 -41 -5 -8 -8 3 -7 32 1 47 16 56 16 9z m178 -10 c2 -7 -3 -12 -12
-12 -9 0 -16 7 -16 16 0 17 22 14 28 -4z m-455 -142 c-6 -6 -33 30 -33 43 0 5
9 -1 19 -14 11 -13 17 -26 14 -29z m-253 -500 c-41 -4 -93 -10 -115 -13 l-40
-6 40 13 c22 8 74 14 115 14 l75 -1 -75 -7z m-495 -360 c3 -5 1 -10 -4 -10 -6
0 -11 5 -11 10 0 6 2 10 4 10 3 0 8 -4 11 -10z m425 -30 c0 -5 -2 -10 -4 -10
-3 0 -8 5 -11 10 -3 6 -1 10 4 10 6 0 11 -4 11 -10z m-70 -50 c0 -5 -5 -10
-11 -10 -5 0 -7 5 -4 10 3 6 8 10 11 10 2 0 4 -4 4 -10z m-128 -207 c10 -9 18
-20 18 -25 0 -16 -23 -8 -46 17 -19 20 -20 25 -7 25 9 0 25 -7 35 -17z m258
-128 c-7 -8 -17 -15 -23 -15 -5 0 -2 9 8 20 21 23 35 19 15 -5z m-257 -2 c-7
-2 -21 -2 -30 0 -10 3 -4 5 12 5 17 0 24 -2 18 -5z m-493 -953 c0 -41 -29
-110 -46 -110 -8 0 -19 11 -24 25 -16 42 23 113 63 115 4 0 7 -13 7 -30z
m-718 -517 c89 -37 92 -38 55 -41 -37 -3 -119 16 -187 44 -27 12 -32 17 -20
24 26 17 57 11 152 -27z m705 15 c-3 -8 -6 -5 -6 6 -1 11 2 17 5 13 3 -3 4
-12 1 -19z m-206 -71 c-10 -9 -11 -8 -5 6 3 10 9 15 12 12 3 -3 0 -11 -7 -18z
m-641 -54 c3 -3 -9 1 -26 10 -17 9 -37 23 -44 33 -12 14 55 -27 70 -43z m1228
18 c23 -9 40 -20 36 -24 -15 -14 -50 -6 -79 18 -36 29 -19 31 43 6z m422 -122
c0 -6 -4 -7 -10 -4 -5 3 -10 11 -10 16 0 6 5 7 10 4 6 -3 10 -11 10 -16z m70
-9 c0 -5 -5 -10 -11 -10 -5 0 -7 5 -4 10 3 6 8 10 11 10 2 0 4 -4 4 -10z m310
-70 c0 -5 -5 -10 -11 -10 -5 0 -7 5 -4 10 3 6 8 10 11 10 2 0 4 -4 4 -10z
m-1629 -79 c-18 -34 -91 -68 -91 -43 0 24 51 61 83 62 14 0 16 -4 8 -19z
m1409 -31 c0 -5 -5 -10 -11 -10 -5 0 -7 5 -4 10 3 6 8 10 11 10 2 0 4 -4 4
-10z m-125 -19 c3 -5 1 -12 -5 -16 -5 -3 -10 1 -10 9 0 18 6 21 15 7z m165
-17 c0 -8 -5 -12 -10 -9 -6 4 -8 11 -5 16 9 14 15 11 15 -7z m-1625 -33 c-3
-6 -11 -8 -17 -5 -6 4 -5 9 3 15 16 10 23 4 14 -10z m645 -11 c0 -35 -41 -130
-56 -130 -36 0 -29 56 13 113 32 41 43 46 43 17z m625 -110 c3 -5 1 -10 -4
-10 -6 0 -11 5 -11 10 0 6 2 10 4 10 3 0 8 -4 11 -10z m6210 -1563 c0 -26 -20
-25 -23 2 -3 16 1 22 10 19 7 -3 13 -12 13 -21z m-45 -87 c0 -5 -2 -10 -4 -10
-3 0 -8 5 -11 10 -3 6 -1 10 4 10 6 0 11 -4 11 -10z m3820 -36 c0 -8 -4 -12
-10 -9 -5 3 -10 10 -10 16 0 5 5 9 10 9 6 0 10 -7 10 -16z m44 -49 c26 -24 31
-40 20 -69 -9 -24 -22 -19 -44 17 -20 33 -27 77 -11 77 4 0 20 -11 35 -25z
m-3614 -129 c0 -3 -4 -8 -10 -11 -5 -3 -10 -1 -10 4 0 6 5 11 10 11 6 0 10 -2
10 -4z m3335 -25 c3 -5 1 -12 -5 -16 -5 -3 -10 1 -10 9 0 18 6 21 15 7z
m-3374 -73 l-9 -33 -1 36 c-1 20 2 39 6 43 13 12 15 -10 4 -46z m4129 13 c0
-13 -49 -23 -73 -14 -20 6 -20 7 8 14 45 10 65 10 65 0z m-5680 -41 c0 -5 -2
-10 -4 -10 -3 0 -8 5 -11 10 -3 6 -1 10 4 10 6 0 11 -4 11 -10z m2079 -31
c-24 -15 -99 -11 -99 5 0 24 51 35 84 19 22 -12 26 -17 15 -24z m-2049 -9 c0
-5 -2 -10 -4 -10 -3 0 -8 5 -11 10 -3 6 -1 10 4 10 6 0 11 -4 11 -10z m4890
-16 c0 -8 -5 -12 -10 -9 -6 4 -8 11 -5 16 9 14 15 11 15 -7z m-4534 -116 c-18
-26 -22 -17 -5 14 6 11 13 17 16 15 3 -3 -2 -16 -11 -29z m-5381 -59 c5 -5 -5
-4 -23 2 -17 6 -32 13 -32 16 0 7 43 -8 55 -18z m5355 11 c0 -5 -4 -10 -9 -10
-6 0 -13 5 -16 10 -3 6 1 10 9 10 9 0 16 -4 16 -10z m1410 -25 c-7 -9 -15 -13
-19 -10 -3 3 1 10 9 15 21 14 24 12 10 -5z m-370 -15 c0 -5 -5 -10 -11 -10 -5
0 -7 5 -4 10 3 6 8 10 11 10 2 0 4 -4 4 -10z m-1470 -66 c0 -8 -4 -12 -10 -9
-5 3 -10 10 -10 16 0 5 5 9 10 9 6 0 10 -7 10 -16z m-3816 -10 c17 -6 22 -24
8 -24 -5 0 -17 7 -28 15 -19 15 -8 20 20 9z m4438 -46 c-7 -7 -12 -8 -12 -2 0
14 12 26 19 19 2 -3 -1 -11 -7 -17z m-50 -30 c-17 -8 -26 -8 -34 0 -9 9 -4 12
23 11 32 0 33 -1 11 -11z m68 -2 c0 -8 -5 -18 -12 -22 -7 -5 -8 -3 -3 6 4 7 2
16 -6 21 -11 7 -10 9 4 9 9 0 17 -6 17 -14z m-5895 -6 c3 -5 1 -10 -4 -10 -6
0 -11 5 -11 10 0 6 2 10 4 10 3 0 8 -4 11 -10z m194 -66 c14 -12 -39 -1 -55
11 -17 13 -16 14 16 3 19 -6 37 -13 39 -14z m5096 -47 c-9 -45 -42 -100 -56
-91 -15 9 -3 51 27 97 30 45 38 43 29 -6z m260 -102 c4 -57 3 -75 -4 -64 -15
23 -27 167 -13 154 6 -5 14 -46 17 -90z m-4305 81 c0 -11 -19 -15 -25 -6 -3 5
1 10 9 10 9 0 16 -2 16 -4z m1410 -26 c0 -5 -5 -10 -11 -10 -5 0 -7 5 -4 10 3
6 8 10 11 10 2 0 4 -4 4 -10z m-2066 -53 c23 -31 17 -43 -13 -28 -19 10 -51
59 -51 77 0 11 44 -22 64 -49z m-659 -79 c0 -104 2 -118 28 -170 41 -83 73
-103 169 -103 70 0 79 2 115 31 44 36 70 77 94 148 l17 51 12 -30 c6 -16 14
-55 17 -85 11 -118 -69 -203 -316 -337 -69 -37 -128 -69 -132 -71 -3 -1 -9 29
-13 68 -7 74 -27 126 -71 178 l-25 30 16 63 c21 83 11 156 -41 292 -6 13 -2
17 16 18 20 0 114 24 114 28 0 0 0 -50 0 -111z m1295 102 c0 -19 -30 -70 -41
-70 -8 0 -7 5 1 15 7 9 10 18 7 22 -8 8 11 43 23 43 6 0 10 -5 10 -10z m-1110
-4 c0 -3 -4 -8 -10 -11 -5 -3 -10 -1 -10 4 0 6 5 11 10 11 6 0 10 -2 10 -4z
m17 -103 c-3 -10 -5 -4 -5 12 0 17 2 24 5 18 2 -7 2 -21 0 -30z m1283 13 c0
-3 -4 -8 -10 -11 -5 -3 -10 -1 -10 4 0 6 5 11 10 11 6 0 10 -2 10 -4z m1265
-16 c3 -5 -1 -10 -10 -10 -9 0 -13 5 -10 10 3 6 8 10 10 10 2 0 7 -4 10 -10z
m-931 -26 c23 -9 20 -29 -9 -48 -43 -28 -54 -20 -35 28 10 27 17 30 44 20z
m3821 -14 c3 -5 1 -10 -4 -10 -6 0 -11 5 -11 10 0 6 2 10 4 10 3 0 8 -4 11
-10z m2890 -69 c3 -5 1 -12 -5 -16 -5 -3 -10 1 -10 9 0 18 6 21 15 7z m-6083
-16 c0 -5 -5 -11 -11 -13 -6 -2 -11 4 -11 13 0 9 5 15 11 13 6 -2 11 -8 11
-13z m408 -5 c0 -5 -2 -10 -4 -10 -3 0 -8 5 -11 10 -3 6 -1 10 4 10 6 0 11 -4
11 -10z m6031 0 c21 -12 25 -30 7 -48 -15 -15 -48 3 -48 27 0 31 11 36 41 21z
m-361 -45 c0 -18 -5 -25 -20 -25 -24 0 -25 8 -3 32 21 23 23 23 23 -7z m-6020
-125 c0 -5 -5 -10 -11 -10 -5 0 -7 5 -4 10 3 6 8 10 11 10 2 0 4 -4 4 -10z
m5950 -10 c0 -5 -4 -10 -10 -10 -5 0 -10 5 -10 10 0 6 5 10 10 10 6 0 10 -4
10 -10z m-3981 -114 l-1 -51 -8 50 c-4 28 -11 59 -15 70 -7 20 -6 20 9 1 10
-13 16 -38 15 -70z m-3055 51 c-5 -15 -33 -31 -40 -24 -2 2 6 14 17 26 23 24
33 23 23 -2z m7714 -36 c17 -11 3 -17 -62 -26 -30 -5 -46 -4 -46 3 0 26 78 43
108 23z m-8448 -211 c11 -22 18 -40 15 -40 -2 0 -14 18 -25 40 -11 22 -18 40
-15 40 2 0 14 -18 25 -40z m3416 -1 c-8 -19 -15 -29 -15 -22 -1 18 19 67 25
61 3 -3 -2 -21 -10 -39z m354 -62 c0 -5 -4 -5 -10 -2 -5 3 -10 14 -10 23 0 15
2 15 10 2 5 -8 10 -19 10 -23z m-112 5 c3 -9 -2 -13 -14 -10 -9 1 -19 9 -22
16 -3 9 2 13 14 10 9 -1 19 -9 22 -16z m-268 -12 c0 -5 -5 -10 -11 -10 -5 0
-7 5 -4 10 3 6 8 10 11 10 2 0 4 -4 4 -10z m-3315 -40 c10 -11 16 -20 13 -20
-3 0 -13 9 -23 20 -10 11 -16 20 -13 20 3 0 13 -9 23 -20z m3315 16 c0 -3 -4
-8 -10 -11 -5 -3 -10 -1 -10 4 0 6 5 11 10 11 6 0 10 -2 10 -4z m4808 -14 c9
-6 10 -16 1 -40 -12 -36 -21 -39 -43 -16 -19 18 -19 20 -6 45 11 20 27 24 48
11z m-4378 -92 c0 -5 -7 -10 -15 -10 -8 0 -15 5 -15 10 0 6 7 10 15 10 8 0 15
-4 15 -10z m2855 -200 c3 -5 1 -10 -4 -10 -6 0 -11 5 -11 10 0 6 2 10 4 10 3
0 8 -4 11 -10z m-41 -81 c-25 -27 -28 -17 -8 23 14 26 19 29 22 15 2 -10 -4
-27 -14 -38z m-4 -79 c0 -5 -4 -10 -10 -10 -5 0 -10 5 -10 10 0 6 5 10 10 10
6 0 10 -4 10 -10z m223 -127 c-7 -2 -19 -2 -25 0 -7 3 -2 5 12 5 14 0 19 -2
13 -5z m245 -59 c27 -8 29 -24 3 -24 -28 0 -52 11 -45 21 6 11 11 11 42 3z
m-68 -14 c0 -5 -4 -10 -10 -10 -5 0 -10 5 -10 10 0 6 5 10 10 10 6 0 10 -4 10
-10z m140 0 c0 -5 -4 -10 -10 -10 -5 0 -10 5 -10 10 0 6 5 10 10 10 6 0 10 -4
10 -10z m-7497 -50 l120 0 -77 -77 c-42 -42 -107 -121 -143 -175 -37 -54 -68
-97 -69 -95 -2 2 3 25 11 52 22 72 19 210 -5 264 l-20 44 31 -7 c17 -3 86 -6
152 -6z m6922 -40 c3 -5 1 -10 -4 -10 -6 0 -11 5 -11 10 0 6 2 10 4 10 3 0 8
-4 11 -10z m215 -40 c0 -5 -5 -10 -11 -10 -5 0 -7 5 -4 10 3 6 8 10 11 10 2 0
4 -4 4 -10z m81 -40 c27 -15 24 -30 -6 -30 -14 0 -29 8 -35 20 -9 16 -8 20 5
20 9 0 25 -5 36 -10z m-11 -90 c0 -5 -4 -10 -10 -10 -5 0 -10 5 -10 10 0 6 5
10 10 10 6 0 10 -4 10 -10z m-115 -371 c-22 -4 -51 -8 -65 -7 -35 1 34 15 75
16 25 0 23 -2 -10 -9z"/>
</g>
</svg>
