<?xml version="1.0" encoding="iso-8859-1"?>
<!-- Generator: Adobe Illustrator 18.0.0, SVG Export Plug-In . SVG Version: 6.00 Build 0)  -->
<!DOCTYPE svg PUBLIC "-//W3C//DTD SVG 1.1//EN" "http://www.w3.org/Graphics/SVG/1.1/DTD/svg11.dtd">
<svg version="1.1" id="Capa_1" xmlns="http://www.w3.org/2000/svg" xmlns:xlink="http://www.w3.org/1999/xlink" x="0px" y="0px"
	 viewBox="0 0 55 55" style="enable-background:new 0 0 55 55;" xml:space="preserve">
<g>
	<path fill="#000080" d="M27.5,0C12.337,0,0,12.337,0,27.5S12.337,55,27.5,55S55,42.663,55,27.5S42.663,0,27.5,0z M27.5,53
		C13.439,53,2,41.561,2,27.5S13.439,2,27.5,2S53,13.439,53,27.5S41.561,53,27.5,53z"/>
	<path fill="#000080" d="M31.306,27.227l-6.878,5.644c-0.427,0.351-0.488,0.98-0.139,1.408c0.198,0.24,0.485,0.365,0.774,0.365
		c0.223,0,0.447-0.074,0.634-0.227l6.878-5.644c0.427-0.351,0.488-0.98,0.139-1.408C32.363,26.939,31.734,26.877,31.306,27.227z"/>
	<path fill="#000080" d="M32.513,32.705c0.427-0.351,0.488-0.98,0.139-1.408c-0.351-0.425-0.979-0.488-1.408-0.139l-6.878,5.644
		c-0.427,0.351-0.488,0.98-0.139,1.408c0.198,0.24,0.485,0.365,0.774,0.365c0.223,0,0.447-0.074,0.634-0.227L32.513,32.705z"/>
	<path fill="#000080" d="M36.094,31.059l-5.896,4.838c-0.427,0.351-0.488,0.98-0.139,1.408c0.198,0.24,0.485,0.365,0.774,0.365
		c0.223,0,0.447-0.074,0.634-0.227l5.896-4.838c0.427-0.351,0.488-0.98,0.139-1.408C37.15,30.772,36.522,30.709,36.094,31.059z"/>
	<path fill="#000080" d="M35.049,35.797l-6.878,5.644c-0.427,0.351-0.488,0.98-0.139,1.408c0.198,0.24,0.485,0.365,0.774,0.365
		c0.223,0,0.447-0.074,0.634-0.227l6.878-5.644c0.427-0.351,0.488-0.98,0.139-1.408C36.106,35.51,35.478,35.446,35.049,35.797z"/>
	<path fill="#000080" d="M7.33,23.92c-0.1,0.543,0.26,1.064,0.803,1.164c0.061,0.012,0.122,0.017,0.182,0.017c0.243,0,0.466-0.099,0.644-0.25
		c0.691,0.744,1.513,1.311,2.404,1.677c0.029,0.015,0.049,0.039,0.079,0.051c0.062,0.025,0.127,0.033,0.189,0.055
		c0.135,0.049,0.27,0.094,0.407,0.133c-1.512,1.835-1.922,4.576-0.825,7.063c1.143,2.592,3.592,4.169,6.07,4.168
		c0.778,0,1.56-0.155,2.304-0.483c3.115-1.375,4.428-5.264,2.926-8.668c-0.72-1.632-1.974-2.917-3.532-3.617
		c-0.287-0.129-0.578-0.227-0.871-0.311c0.114-0.138,0.223-0.281,0.325-0.43c0.03-0.044,0.057-0.09,0.087-0.135
		c0.112-0.175,0.216-0.357,0.312-0.545c0.032-0.064,0.066-0.126,0.096-0.191c0.106-0.229,0.204-0.463,0.284-0.709
		c0-0.001,0.001-0.003,0.001-0.005c0.015-0.045,0.024-0.092,0.038-0.136c0.065-0.212,0.118-0.427,0.161-0.644
		c0.007-0.037,0.021-0.072,0.027-0.109c0.003-0.014-0.003-0.027-0.001-0.041c0.192-1.09,0.117-2.224-0.222-3.313
		c-0.002-0.009,0-0.017-0.003-0.025c-0.006-0.019-0.015-0.037-0.021-0.056c-0.078-0.242-0.166-0.482-0.27-0.719
		c-0.178-0.403-0.389-0.784-0.63-1.143c-0.185-0.276-0.402-0.522-0.62-0.766c-0.064-0.072-0.114-0.155-0.182-0.224
		c-0.001,0-0.001-0.001-0.002-0.001c-0.603-0.622-1.311-1.127-2.099-1.482c-0.208-0.094-0.419-0.174-0.631-0.244
		c0.155-0.363,0.089-0.797-0.204-1.095c-0.387-0.395-1.021-0.399-1.414-0.012c-0.267,0.262-0.518,0.541-0.771,0.819
		c-0.624,0.054-1.237,0.207-1.821,0.465c-1.527,0.674-2.67,1.96-3.216,3.621c-0.523,1.593-0.431,3.347,0.253,4.954
		C7.495,23.138,7.402,23.525,7.33,23.92z M20.683,29.653c1.057,2.396,0.203,5.102-1.902,6.031s-4.681-0.265-5.737-2.661
		s-0.203-5.103,1.902-6.031c0.479-0.211,0.989-0.316,1.509-0.316c0.567,0,1.146,0.126,1.706,0.378
		C19.267,27.551,20.163,28.475,20.683,29.653z M9.235,18.421c0.366-1.115,1.12-1.974,2.122-2.415c0.457-0.201,0.943-0.3,1.438-0.309
		l0.03,0c0.1,0.001,0.189,0.014,0.284,0.02c0.147,0.009,0.294,0.023,0.441,0.049c0.108,0.019,0.217,0.043,0.326,0.071
		c0.233,0.061,0.465,0.128,0.694,0.231c0.553,0.249,1.053,0.604,1.48,1.043c0.002,0.002,0.003,0.006,0.005,0.008
		c0.215,0.222,0.41,0.463,0.583,0.72c0.173,0.259,0.325,0.535,0.454,0.827c0.519,1.176,0.597,2.456,0.222,3.606
		c-0.005,0.017-0.014,0.032-0.019,0.049c-0.078,0.23-0.176,0.446-0.286,0.652c-0.033,0.062-0.067,0.122-0.103,0.181
		c-0.11,0.184-0.232,0.358-0.367,0.519c-0.023,0.027-0.042,0.058-0.065,0.084c-0.357,0.401-0.789,0.722-1.283,0.94
		c-0.251,0.111-0.509,0.187-0.77,0.239c-0.048,0.01-0.097,0.012-0.145,0.02c-0.199,0.031-0.4,0.046-0.601,0.045
		c-0.07,0-0.141,0-0.212-0.004c-0.239-0.014-0.478-0.043-0.713-0.099c-0.043-0.01-0.085-0.029-0.128-0.041
		c-0.982-0.268-1.892-0.9-2.562-1.806c-0.065-0.087-0.132-0.172-0.191-0.264c-0.141-0.218-0.27-0.448-0.382-0.692l-0.044-0.091
		C8.936,20.836,8.86,19.564,9.235,18.421z"/>
	<path fill="#000080" d="M29.158,45.927c-0.943,0.083-1.899,0.095-2.829,0.037c-0.565-0.03-1.026,0.386-1.061,0.936
		c-0.034,0.552,0.385,1.026,0.936,1.061C26.633,47.986,27.065,48,27.5,48c0.609,0,1.227-0.027,1.834-0.081
		c0.551-0.049,0.957-0.534,0.908-1.084S29.702,45.87,29.158,45.927z"/>
	<path fill="#000080" d="M43.67,18.505c0.183,0.328,0.523,0.513,0.874,0.513c0.165,0,0.332-0.041,0.486-0.127c0.482-0.269,0.655-0.878,0.386-1.36
		c-0.509-0.912-1.091-1.792-1.73-2.612c-0.34-0.436-0.968-0.514-1.403-0.175c-0.436,0.34-0.514,0.968-0.175,1.403
		C42.685,16.888,43.21,17.681,43.67,18.505z"/>
	<path fill="#000080" d="M44.854,21.073c0.326,0.882,0.587,1.797,0.775,2.72c0.096,0.474,0.513,0.801,0.979,0.801c0.065,0,0.133-0.007,0.2-0.021
		c0.541-0.109,0.891-0.638,0.781-1.179c-0.209-1.023-0.498-2.039-0.86-3.017c-0.192-0.518-0.769-0.784-1.285-0.59
		C44.926,19.979,44.661,20.556,44.854,21.073z"/>
	<path fill="#000080" d="M34.632,44.576c-0.865,0.362-1.769,0.661-2.685,0.887c-0.536,0.132-0.864,0.674-0.731,1.21
		c0.112,0.456,0.521,0.761,0.97,0.761c0.079,0,0.16-0.009,0.24-0.029c1.017-0.25,2.019-0.581,2.979-0.984
		c0.509-0.213,0.749-0.799,0.535-1.309C35.728,44.603,35.141,44.359,34.632,44.576z"/>
	<path fill="#000080" d="M46.618,31.495c-0.535-0.142-1.081,0.179-1.221,0.713c-0.239,0.911-0.552,1.81-0.927,2.671
		c-0.221,0.506,0.011,1.096,0.518,1.316c0.13,0.057,0.266,0.083,0.398,0.083c0.386,0,0.754-0.225,0.918-0.601
		c0.416-0.955,0.762-1.951,1.026-2.962C47.472,32.182,47.152,31.635,46.618,31.495z"/>
	<path fill="#000080" d="M27.349,9.001c0.006,0,0.013,0,0.02,0L27.501,9c0.006,0,0.013,0,0.019,0c0.888,0,1.782,0.064,2.659,0.191
		c0.049,0.008,0.097,0.011,0.145,0.011c0.489,0,0.916-0.358,0.988-0.856c0.08-0.547-0.299-1.054-0.846-1.133
		C29.494,7.071,28.503,7,27.521,7c-0.007,0-0.014,0-0.021,0l-0.171,0.001c-0.553,0.011-0.991,0.468-0.98,1.02
		C26.359,8.566,26.805,9.001,27.349,9.001z"/>
	<path fill="#000080" d="M40.204,14.053c0.193,0.183,0.44,0.273,0.688,0.273c0.265,0,0.53-0.104,0.727-0.313c0.38-0.401,0.362-1.034-0.039-1.414
		c-0.758-0.717-1.576-1.38-2.434-1.972c-0.455-0.314-1.078-0.202-1.391,0.254c-0.314,0.454-0.2,1.077,0.254,1.391
		C38.782,12.808,39.521,13.406,40.204,14.053z"/>
	<path fill="#000080" d="M32.937,9.813c0.897,0.275,1.783,0.624,2.631,1.035c0.141,0.068,0.289,0.101,0.436,0.101c0.371,0,0.728-0.207,0.9-0.563
		c0.241-0.496,0.034-1.095-0.463-1.336c-0.939-0.457-1.922-0.843-2.918-1.148c-0.527-0.161-1.087,0.136-1.249,0.663
		C32.111,9.092,32.408,9.65,32.937,9.813z"/>
	<path fill="#000080" d="M47.977,26.504c-0.025-0.535-0.468-0.953-0.998-0.953c-0.016,0-0.031,0-0.048,0.001c-0.552,0.025-0.978,0.494-0.952,1.046
		C45.992,26.896,46,27.197,46,27.5c0,0.646-0.033,1.294-0.1,1.927c-0.057,0.55,0.343,1.041,0.892,1.099
		c0.035,0.003,0.07,0.005,0.104,0.005c0.506,0,0.94-0.383,0.994-0.896C47.963,28.933,48,28.215,48,27.5
		C48,27.166,47.992,26.834,47.977,26.504z"/>
	<path fill="#000080" d="M44.524,37.065c-0.467-0.293-1.084-0.154-1.38,0.312c-0.501,0.793-1.069,1.556-1.688,2.267
		c-0.363,0.416-0.319,1.048,0.098,1.41c0.189,0.165,0.423,0.246,0.656,0.246c0.278,0,0.557-0.116,0.754-0.344
		c0.686-0.786,1.314-1.631,1.871-2.511C45.131,37.979,44.991,37.361,44.524,37.065z"/>
	<path fill="#000080" d="M12.123,37.79c-0.309-0.46-0.931-0.582-1.388-0.274c-0.459,0.308-0.582,0.929-0.274,1.388
		c0.58,0.865,1.232,1.694,1.938,2.462c0.197,0.215,0.467,0.323,0.736,0.323c0.242,0,0.485-0.087,0.677-0.264
		c0.406-0.374,0.434-1.007,0.06-1.413C13.234,39.318,12.646,38.571,12.123,37.79z"/>
	<path fill="#000080" d="M18.274,43.539c-0.813-0.47-1.6-1.006-2.335-1.595c-0.433-0.348-1.061-0.275-1.405,0.155
		c-0.346,0.431-0.276,1.061,0.155,1.405c0.814,0.652,1.685,1.247,2.585,1.767c0.157,0.091,0.329,0.134,0.499,0.134
		c0.346,0,0.682-0.18,0.867-0.5C18.917,44.427,18.753,43.815,18.274,43.539z"/>
	<path fill="#000080" d="M23.528,45.573c-0.921-0.202-1.832-0.477-2.707-0.815c-0.517-0.2-1.095,0.057-1.294,0.571s0.057,1.095,0.571,1.294
		c0.971,0.376,1.98,0.68,3.002,0.903c0.072,0.016,0.144,0.023,0.215,0.023c0.46,0,0.874-0.318,0.976-0.786
		C24.409,46.225,24.067,45.691,23.528,45.573z"/>
	<path fill="#000080" d="M10.733,35.327c-0.399-0.852-0.734-1.742-0.998-2.646C9.581,32.15,9.025,31.844,8.496,32
		c-0.53,0.154-0.835,0.709-0.681,1.239c0.292,1.003,0.664,1.99,1.105,2.936c0.17,0.363,0.53,0.576,0.907,0.576
		c0.142,0,0.286-0.03,0.423-0.094C10.751,36.423,10.967,35.827,10.733,35.327z"/>
	<path fill="#000080" d="M39.442,41.629c-0.716,0.607-1.487,1.165-2.292,1.658c-0.471,0.289-0.619,0.904-0.33,1.375
		c0.188,0.308,0.518,0.478,0.854,0.478c0.178,0,0.358-0.048,0.521-0.147c0.892-0.546,1.746-1.164,2.54-1.836
		c0.421-0.357,0.474-0.988,0.117-1.41C40.495,41.326,39.866,41.273,39.442,41.629z"/>
	<path fill="#000080" d="M16.178,12.64c0.201,0,0.405-0.061,0.581-0.188c0.769-0.55,1.582-1.044,2.419-1.469c0.492-0.25,0.688-0.852,0.438-1.345
		c-0.25-0.491-0.851-0.688-1.345-0.438c-0.927,0.471-1.827,1.018-2.677,1.627c-0.449,0.321-0.553,0.946-0.23,1.395
		C15.56,12.494,15.866,12.64,16.178,12.64z"/>
	<path fill="#000080" d="M8.293,31.033c0.548-0.071,0.934-0.572,0.862-1.12C9.053,29.12,9,28.308,9,27.5l0.005-0.413
		c0.011-0.553-0.428-1.009-0.979-1.021c-0.518,0.005-1.009,0.429-1.021,0.979L7,27.5c0,0.895,0.058,1.793,0.173,2.671
		c0.065,0.504,0.495,0.871,0.99,0.871C8.206,31.042,8.249,31.039,8.293,31.033z"/>
	<path fill="#000080" d="M21.479,9.953c0.103,0,0.207-0.016,0.311-0.05c0.893-0.291,1.817-0.516,2.747-0.666c0.545-0.089,0.915-0.603,0.827-1.147
		c-0.089-0.545-0.596-0.916-1.147-0.827c-1.031,0.168-2.057,0.416-3.048,0.74c-0.524,0.171-0.812,0.735-0.64,1.261
		C20.667,9.686,21.059,9.953,21.479,9.953z"/>
	<path fill="#000080" d="M22.55,11.162c-3.115,1.374-4.427,5.263-2.926,8.668c1.148,2.604,3.614,4.183,6.065,4.183c0.492,0,0.983-0.071,1.463-0.203
		c1.273,2.002,3.395,3.189,5.542,3.188c0.778,0,1.56-0.155,2.304-0.483c3.116-1.375,4.428-5.264,2.926-8.668
		c-0.72-1.632-1.974-2.917-3.532-3.617c-1.306-0.587-2.697-0.702-3.999-0.355C28.653,11.113,25.366,9.92,22.55,11.162z
		 M21.454,19.023c-1.057-2.396-0.203-5.103,1.902-6.031c0.492-0.217,1.007-0.32,1.521-0.32c1.392,0,2.778,0.755,3.687,2.052
		c0,0-0.001,0.001-0.002,0.002c-0.265,0.187-0.51,0.398-0.74,0.626c-0.005,0.005-0.01,0.01-0.015,0.015
		c-0.655,0.658-1.162,1.474-1.472,2.416c-0.43,1.308-0.439,2.725-0.053,4.08c0.008,0.029,0.01,0.057,0.019,0.086
		C24.397,22.255,22.365,21.089,21.454,19.023z M33.571,16.054c1.106,0.497,2.003,1.421,2.522,2.6
		c1.058,2.396,0.204,5.102-1.902,6.031c-2.105,0.929-4.68-0.265-5.737-2.661c-0.492-1.115-0.554-2.293-0.282-3.334
		c0.02-0.076,0.028-0.155,0.052-0.23c0.068-0.214,0.161-0.414,0.258-0.612c0.027-0.054,0.045-0.115,0.074-0.167
		c0.111-0.203,0.245-0.389,0.387-0.569c0.029-0.037,0.051-0.08,0.082-0.115c0.151-0.178,0.325-0.335,0.507-0.482
		c0.033-0.026,0.059-0.06,0.093-0.085c0.219-0.166,0.457-0.309,0.716-0.425l0.038-0.017c0.473-0.206,0.977-0.31,1.489-0.31
		C32.434,15.676,33.012,15.802,33.571,16.054z"/>
</g>
<g>
</g>
<g>
</g>
<g>
</g>
<g>
</g>
<g>
</g>
<g>
</g>
<g>
</g>
<g>
</g>
<g>
</g>
<g>
</g>
<g>
</g>
<g>
</g>
<g>
</g>
<g>
</g>
<g>
</g>
</svg>
