<?xml version="1.0" encoding="iso-8859-1"?>
<!-- Generator: Adobe Illustrator 19.0.0, SVG Export Plug-In . SVG Version: 6.00 Build 0)  -->
<svg version="1.1" id="Layer_1" xmlns="http://www.w3.org/2000/svg" xmlns:xlink="http://www.w3.org/1999/xlink" x="0px" y="0px"
	 viewBox="0 0 512 512" style="enable-background:new 0 0 512 512;" xml:space="preserve">
<g>
	<g>
		<path fill="#000080" d="M195.691,195.988H83.692c-4.386,0-7.941,3.555-7.941,7.941v300.129c0,4.387,3.556,7.941,7.941,7.941h111.999
			c4.386,0,7.941-3.555,7.941-7.941V203.93C203.633,199.543,200.077,195.988,195.691,195.988z M187.75,496.117H91.633V342.443
			c8.233-2.238,26.095-4.808,43.379,7.799c6.867,5.007,14.413,6.857,21.817,6.857c11.784-0.001,23.197-4.684,30.92-8.772V496.117z
			 M187.75,329.798c-2.936,2.029-28.121,18.743-43.379,7.613c-20.025-14.604-40.509-13.785-52.739-11.271V211.871h96.118V329.798z"
			/>
	</g>
</g>
<g>
	<g>
		<path fill="#000080" d="M429.953,313.817c-3.916-3.855-9.049-5.94-14.468-5.847c-1.335-0.029-2.609-0.485-3.563-1.425
			c-0.955-0.941-1.481-2.196-1.481-3.536v-30.064c-0.001-1.339,0.525-2.595,1.48-3.536c0.936-0.921,2.17-1.426,3.484-1.426
			c0.028,0,0.097-0.003,0.08,0.001c5.424,0.1,10.552-1.993,14.467-5.847c4.001-3.94,6.296-9.423,6.296-15.046v-85.421
			c0-27.007-13.581-51.867-36.33-66.501c-7.137-4.59-11.396-12.327-11.396-20.694V49.911c0-0.222-0.015-0.442-0.033-0.659
			c0.018-0.218,0.033-0.436,0.033-0.659V7.941c0-4.387-3.556-7.941-7.941-7.941h-70.154c-4.386,0-7.941,3.555-7.941,7.941v40.653
			c0,0.222,0.015,0.442,0.033,0.659c-0.018,0.218-0.033,0.436-0.033,0.659V68.49c0,9.346-5.352,17.964-13.636,21.955
			c-27.198,13.102-44.772,41.06-44.772,71.226v85.421c0,5.623,2.294,11.106,6.296,15.046c3.915,3.855,9.022,5.92,14.468,5.847
			c1.331,0.012,2.608,0.485,3.563,1.425c0.955,0.941,1.481,2.196,1.481,3.536v30.015c0,1.396-0.568,2.756-1.557,3.729
			c-0.608,0.598-1.642,1.319-3.076,1.284c-5.65-0.091-10.943,2.038-14.954,5.988c-4.012,3.948-6.221,9.225-6.221,14.853v132.029
			c0,26.403,21.481,47.884,47.883,47.884h96.405c26.402,0,47.883-21.48,47.883-47.883V328.864
			C436.249,323.24,433.955,317.757,429.953,313.817z M318.369,15.883h54.272v24.77h-54.272V15.883z M420.367,460.845
			c0,17.644-14.356,32-32,32h-96.405c-17.646,0-32-14.356-32-32.001V328.815c0-1.341,0.526-2.595,1.481-3.537
			c0.936-0.921,2.17-1.426,3.484-1.426c0.026,0,0.054,0.001,0.08,0.001c5.421,0.11,10.551-1.994,14.467-5.847
			c4.001-3.94,6.296-9.424,6.296-15.047v-30.015c0-5.629-2.209-10.905-6.221-14.853c-4.012-3.949-9.319-6.068-14.954-5.988
			c-1.426,0.001-2.469-0.686-3.077-1.284c-0.99-0.974-1.557-2.333-1.557-3.728V161.67c0-24.104,14.045-46.445,35.782-56.917
			c13.744-6.622,22.625-20.856,22.625-36.264V57.853h54.272v16.623c0,13.794,6.986,26.525,18.686,34.051
			c18.183,11.698,29.04,31.565,29.04,53.143v85.421c0,1.396-0.568,2.755-1.556,3.728c-0.607,0.598-1.607,1.273-3.076,1.284
			c-5.608-0.099-10.942,2.037-14.954,5.988c-4.012,3.948-6.221,9.225-6.221,14.853v30.064c-0.002,5.63,2.208,10.906,6.22,14.854
			c4.012,3.949,9.337,6.107,14.954,5.988c1.476-0.005,2.469,0.685,3.077,1.284c0.99,0.974,1.556,2.334,1.556,3.729V460.845z"/>
	</g>
</g>
<g>
	<g>
		<path fill="#000080" d="M339.632,70.99c-4.386,0-7.941,3.555-7.941,7.941c0,9.347-5.352,17.965-13.636,21.955
			c-27.198,13.102-44.772,41.06-44.772,71.226c0,4.387,3.556,7.941,7.941,7.941s7.941-3.555,7.941-7.941
			c0-24.104,14.045-46.445,35.782-56.917c13.744-6.621,22.625-20.855,22.625-36.264C347.573,74.544,344.017,70.99,339.632,70.99z"/>
	</g>
</g>
<g>
	<g>
		<path fill="#000080" d="M373.182,260.286h-66.036c-4.386,0-7.941,3.555-7.941,7.941c0,4.387,3.556,7.941,7.941,7.941h66.036
			c4.386,0,7.941-3.555,7.941-7.941C381.123,263.841,377.568,260.286,373.182,260.286z"/>
	</g>
</g>
<g>
	<g>
		<path fill="#000080" d="M373.182,294.029h-66.036c-4.386,0-7.941,3.555-7.941,7.941c0,4.387,3.556,7.941,7.941,7.941h66.036
			c4.386,0,7.941-3.555,7.941-7.941C381.123,297.584,377.568,294.029,373.182,294.029z"/>
	</g>
</g>
<g>
</g>
<g>
</g>
<g>
</g>
<g>
</g>
<g>
</g>
<g>
</g>
<g>
</g>
<g>
</g>
<g>
</g>
<g>
</g>
<g>
</g>
<g>
</g>
<g>
</g>
<g>
</g>
<g>
</g>
</svg>
