<?xml version="1.0" encoding="iso-8859-1"?>
<!-- Generator: Adobe Illustrator 19.0.0, SVG Export Plug-In . SVG Version: 6.00 Build 0)  -->
<svg version="1.1" id="Capa_1" xmlns="http://www.w3.org/2000/svg" xmlns:xlink="http://www.w3.org/1999/xlink" x="0px" y="0px"
	 viewBox="0 0 480 480" style="enable-background:new 0 0 480 480;" xml:space="preserve">
<g id="XMLID_883_">
	<path fill="#000080" id="XMLID_884_" d="M189.188,141.184V0h-80v141.184C79.59,156.177,60.813,186.418,60.813,220v260h176.75V220
		C237.563,186.418,218.785,156.177,189.188,141.184z M169.188,20v60h-40V20H169.188z M123.019,156.822l6.169-2.559V100h40v54.263
		l6.169,2.559c22.512,9.336,38.025,29.595,41.476,53.178H81.542C84.993,186.417,100.507,166.158,123.019,156.822z M217.563,230v105
		H80.813V230H217.563z M80.813,460V355h136.75v105H80.813z"/>
	<path fill="#000080" id="XMLID_890_" d="M419.188,305v-95h-150v95c0,37.963,28.359,69.407,65,74.313V460h-45v20h110v-20h-45v-80.687
		C390.829,374.407,419.188,342.963,419.188,305z M399.188,230v30h-110v-30H399.188z M289.188,305v-25h110v25
		c0,30.327-24.673,55-55,55S289.188,335.327,289.188,305z"/>
</g>
<g>
</g>
<g>
</g>
<g>
</g>
<g>
</g>
<g>
</g>
<g>
</g>
<g>
</g>
<g>
</g>
<g>
</g>
<g>
</g>
<g>
</g>
<g>
</g>
<g>
</g>
<g>
</g>
<g>
</g>
</svg>
