<?xml version="1.0" encoding="iso-8859-1"?>
<!-- Generator: Adobe Illustrator 19.0.0, SVG Export Plug-In . SVG Version: 6.00 Build 0)  -->
<svg version="1.1" id="Capa_1" xmlns="http://www.w3.org/2000/svg" xmlns:xlink="http://www.w3.org/1999/xlink" x="0px" y="0px"
	 viewBox="0 0 470 470" style="enable-background:new 0 0 470 470;" xml:space="preserve">
<g>
	<path fill="#000080" d="M462.5,132.588H7.5c-4.142,0-7.5,3.358-7.5,7.5v30.199c0,3.126,1.939,5.925,4.867,7.022l50.53,18.949
		c3.879,1.453,8.202-0.511,9.656-4.389c1.455-3.878-0.511-8.201-4.389-9.656L15,165.09v-17.501h65.531v247.765
		c-17.206,3.488-30.199,18.728-30.199,36.948c0,20.788,16.912,37.699,37.699,37.699c20.788,0,37.699-16.912,37.699-37.699
		c0-18.22-12.993-33.46-30.199-36.948v-15.751h278.938v15.751c-17.206,3.487-30.199,18.728-30.199,36.948
		c0,20.788,16.912,37.699,37.699,37.699c20.787,0,37.699-16.912,37.699-37.699c0-18.22-12.993-33.46-30.199-36.948V147.588H455
		v17.501l-45.663,17.124c-3.878,1.455-5.844,5.777-4.389,9.656c1.129,3.011,3.987,4.869,7.023,4.869
		c0.875,0,1.765-0.154,2.632-0.479l50.53-18.949c2.927-1.098,4.867-3.896,4.867-7.022v-30.199
		C470,135.946,466.642,132.588,462.5,132.588z M110.73,432.301c0,12.517-10.183,22.699-22.699,22.699
		c-12.516,0-22.699-10.183-22.699-22.699s10.183-22.699,22.699-22.699C100.547,409.602,110.73,419.784,110.73,432.301z
		 M95.531,364.602V248.54h278.938v116.062H95.531z M404.668,432.301c0,12.517-10.183,22.699-22.699,22.699
		c-12.517,0-22.699-10.183-22.699-22.699s10.183-22.699,22.699-22.699C394.485,409.602,404.668,419.784,404.668,432.301z
		 M374.469,233.54H95.531v-85.952h278.938V233.54z"/>
	<path fill="#000080" d="M154.016,213.064c12.407,0,22.5-10.093,22.5-22.5s-10.093-22.5-22.5-22.5s-22.5,10.093-22.5,22.5
		S141.609,213.064,154.016,213.064z M154.016,183.064c4.136,0,7.5,3.364,7.5,7.5s-3.364,7.5-7.5,7.5s-7.5-3.364-7.5-7.5
		S149.88,183.064,154.016,183.064z"/>
	<path fill="#000080" d="M235,213.064c12.407,0,22.5-10.093,22.5-22.5s-10.093-22.5-22.5-22.5s-22.5,10.093-22.5,22.5S222.593,213.064,235,213.064z
		 M235,183.064c4.136,0,7.5,3.364,7.5,7.5s-3.364,7.5-7.5,7.5s-7.5-3.364-7.5-7.5S230.864,183.064,235,183.064z"/>
	<path fill="#000080" d="M315.984,213.064c12.407,0,22.5-10.093,22.5-22.5s-10.093-22.5-22.5-22.5s-22.5,10.093-22.5,22.5
		S303.578,213.064,315.984,213.064z M315.984,183.064c4.136,0,7.5,3.364,7.5,7.5s-3.364,7.5-7.5,7.5s-7.5-3.364-7.5-7.5
		S311.849,183.064,315.984,183.064z"/>
	<path fill="#000080" d="M88.031,117.588c4.142,0,7.5-3.358,7.5-7.5V45h278.938v65.088c0,4.142,3.358,7.5,7.5,7.5s7.5-3.358,7.5-7.5V37.5
		c0-4.142-3.358-7.5-7.5-7.5h-83.255c-3.484-17.096-18.635-30-36.745-30h-53.938c-18.11,0-33.261,12.904-36.745,30H88.031
		c-4.142,0-7.5,3.358-7.5,7.5v72.588C80.531,114.23,83.889,117.588,88.031,117.588z M208.031,15h53.938
		c9.778,0,18.114,6.271,21.21,15h-96.358C189.917,21.271,198.253,15,208.031,15z"/>
</g>
<g>
</g>
<g>
</g>
<g>
</g>
<g>
</g>
<g>
</g>
<g>
</g>
<g>
</g>
<g>
</g>
<g>
</g>
<g>
</g>
<g>
</g>
<g>
</g>
<g>
</g>
<g>
</g>
<g>
</g>
</svg>
