<?xml version="1.0" encoding="iso-8859-1"?>
<!-- Generator: Adobe Illustrator 19.0.0, SVG Export Plug-In . SVG Version: 6.00 Build 0)  -->
<svg version="1.1" id="Layer_1" xmlns="http://www.w3.org/2000/svg" xmlns:xlink="http://www.w3.org/1999/xlink" x="0px" y="0px"
	 viewBox="0 0 512.001 512.001" style="enable-background:new 0 0 512.001 512.001;" xml:space="preserve">
<g>
	<g>
		<g>
			<path d="M372.338,192.804c-0.004-2.845-0.659-5.87-1.946-8.561L325.27,89.821c2.385-5.31,1.756-2.559,1.756-69.9
				C327.025,8.919,318.106,0,307.104,0H204.897c-11.001,0-19.921,8.919-19.921,19.921c0,67.567-0.598,64.661,1.756,69.9
				l-45.123,94.423c-1.302,2.72-1.942,5.754-1.946,8.561c0,0.009-0.001,0.02-0.001,0.029c0,13.488,0,255.748,0,266.046
				c0,29.291,23.83,53.122,53.122,53.122h126.434c29.291,0,53.122-23.83,53.122-53.122c0-10.194,0-252.447,0-266.046
				C372.339,192.823,372.338,192.814,372.338,192.804z M224.817,39.841h62.366v21.91h-62.366V39.841z M225.264,101.593h61.475
				l34.083,71.32h-129.64L225.264,101.593z M332.498,458.878c0,7.323-5.958,13.28-13.28,13.28H192.784
				c-7.323,0-13.28-5.958-13.28-13.28v-18.812h152.995V458.878z M332.498,400.226H179.503v-115.54h152.995V400.226z
				 M332.498,244.845H179.503v-32.091h152.995V244.845z"/>
			<path d="M256.001,382.542c15.99,0,28.951-12.962,28.951-28.951c0-11.707-15.52-33.73-23.833-44.686
				c-2.572-3.391-7.664-3.391-10.237,0c-8.314,10.958-23.833,32.979-23.833,44.686C227.05,369.58,240.012,382.542,256.001,382.542z"
				/>
		</g>
	</g>
</g>
<g>
</g>
<g>
</g>
<g>
</g>
<g>
</g>
<g>
</g>
<g>
</g>
<g>
</g>
<g>
</g>
<g>
</g>
<g>
</g>
<g>
</g>
<g>
</g>
<g>
</g>
<g>
</g>
<g>
</g>
</svg>
